<svg width="100%" height="100%" viewBox="0 0 768 256" version="1.1" xmlns="http://www.w3.org/2000/svg" xmlns:xlink="http://www.w3.org/1999/xlink" xml:space="preserve" xmlns:serif="http://www.serif.com/" style="fill-rule:evenodd;clip-rule:evenodd;">
    <path d="M385,113L271.971,113C268.788,113 265.736,111.736 263.485,109.485L178.515,24.515C176.264,22.264 173.212,21 170.029,21L83.5,21" style="fill:none;fill-rule:nonzero;stroke:rgb(224,224,224);stroke-width:1px;"/>
    <path d="M384,115L270.971,115C267.788,115 264.736,113.736 262.485,111.485L177.515,26.515C175.264,24.264 172.212,23 169.029,23L84.5,23" style="fill:none;fill-rule:nonzero;stroke:rgb(224,224,224);stroke-width:1px;"/>
    <path d="M383,117L269.971,117C266.788,117 263.736,115.736 261.485,113.485L176.515,28.515C174.264,26.264 171.212,25 168.029,25L86,25" style="fill:none;fill-rule:nonzero;stroke:rgb(224,224,224);stroke-width:1px;"/>
    <path d="M382,119L268.971,119C265.788,119 262.736,117.736 260.485,115.485L175.515,30.515C173.264,28.264 170.212,27 167.029,27L83.5,27" style="fill:none;fill-rule:nonzero;stroke:rgb(224,224,224);stroke-width:1px;"/>
    <path d="M385,135L271.971,135C268.788,135 265.736,136.264 263.485,138.515L178.515,223.485C176.264,225.736 173.212,227 170.029,227L86.5,227" style="fill:none;fill-rule:nonzero;stroke:rgb(224,224,224);stroke-width:1px;"/>
    <path d="M384,133L270.971,133C267.788,133 264.736,134.264 262.485,136.515L177.515,221.485C175.264,223.736 172.212,225 169.029,225L85.5,225" style="fill:none;fill-rule:nonzero;stroke:rgb(224,224,224);stroke-width:1px;"/>
    <path d="M383,131L269.971,131C266.788,131 263.736,132.264 261.485,134.515L176.515,219.485C174.264,221.736 171.212,223 168.029,223L83,223" style="fill:none;fill-rule:nonzero;stroke:rgb(224,224,224);stroke-width:1px;"/>
    <path d="M382,129L268.971,129C265.788,129 262.736,130.264 260.485,132.515L175.515,217.485C173.264,219.736 170.212,221 167.029,221L83.5,221" style="fill:none;fill-rule:nonzero;stroke:rgb(224,224,224);stroke-width:1px;"/>
    <path d="M385,123L128,123" style="fill:none;fill-rule:nonzero;stroke:rgb(224,224,224);stroke-width:1px;"/>
    <path d="M385,121L128,121" style="fill:none;fill-rule:nonzero;stroke:rgb(224,224,224);stroke-width:1px;"/>
    <path d="M385,125L128,125" style="fill:none;fill-rule:nonzero;stroke:rgb(224,224,224);stroke-width:1px;"/>
    <path d="M385,127L128,127" style="fill:none;fill-rule:nonzero;stroke:rgb(224,224,224);stroke-width:1px;"/>
    <path d="M656,123L399,123" style="fill:none;fill-rule:nonzero;stroke:rgb(224,224,224);stroke-width:1px;"/>
    <path d="M656,121L399,121" style="fill:none;fill-rule:nonzero;stroke:rgb(224,224,224);stroke-width:1px;"/>
    <path d="M656,119L399,119" style="fill:none;fill-rule:nonzero;stroke:rgb(224,224,224);stroke-width:1px;"/>
    <path d="M656,117L399,117" style="fill:none;fill-rule:nonzero;stroke:rgb(224,224,224);stroke-width:1px;"/>
    <path d="M656,115L399,115" style="fill:none;fill-rule:nonzero;stroke:rgb(224,224,224);stroke-width:1px;"/>
    <path d="M656,113L399,113" style="fill:none;fill-rule:nonzero;stroke:rgb(224,224,224);stroke-width:1px;"/>
    <path d="M656,125L399,125" style="fill:none;fill-rule:nonzero;stroke:rgb(224,224,224);stroke-width:1px;"/>
    <path d="M656,127L399,127" style="fill:none;fill-rule:nonzero;stroke:rgb(224,224,224);stroke-width:1px;"/>
    <path d="M656,129L399,129" style="fill:none;fill-rule:nonzero;stroke:rgb(224,224,224);stroke-width:1px;"/>
    <path d="M656,131L399,131" style="fill:none;fill-rule:nonzero;stroke:rgb(224,224,224);stroke-width:1px;"/>
    <path d="M656,133L399,133" style="fill:none;fill-rule:nonzero;stroke:rgb(224,224,224);stroke-width:1px;"/>
    <path d="M656,135L399,135" style="fill:none;fill-rule:nonzero;stroke:rgb(224,224,224);stroke-width:1px;"/>
    <g>
        <path d="M109,24C109,12.962 100.038,4 89,4L28,4C16.962,4 8,12.962 8,24C8,35.038 16.962,44 28,44L89,44C100.038,44 109,35.038 109,24Z" style="fill:url(#_Linear1);"/>
        <path d="M108.5,24C108.5,13.238 99.762,4.5 89,4.5L28,4.5C17.238,4.5 8.5,13.238 8.5,24C8.5,34.762 17.238,43.5 28,43.5L89,43.5C99.762,43.5 108.5,34.762 108.5,24Z" style="fill:none;stroke:rgb(20,20,18);stroke-opacity:0.05;stroke-width:1px;"/>
        <g>
            <clipPath id="_clip2">
                <rect x="24" y="14" width="69" height="20"/>
            </clipPath>
            <g clip-path="url(#_clip2)">
                <path d="M38.821,17.795C38.807,17.697 38.725,17.641 38.656,17.641C38.587,17.641 37.22,17.613 37.22,17.613C37.22,17.613 36.075,16.493 35.965,16.366C35.854,16.254 35.633,16.282 35.551,16.31C35.551,16.31 35.33,16.38 34.971,16.493C34.916,16.296 34.819,16.058 34.695,15.806C34.295,15.022 33.688,14.602 32.97,14.602C32.915,14.602 32.873,14.602 32.818,14.616C32.791,14.588 32.777,14.56 32.749,14.546C32.432,14.21 32.032,14.041 31.549,14.056C30.624,14.084 29.699,14.77 28.94,15.974C28.416,16.829 28.016,17.893 27.892,18.719C26.829,19.055 26.084,19.294 26.056,19.294C25.518,19.462 25.504,19.476 25.435,19.994C25.408,20.386 24,31.436 24,31.436L35.813,33.509L40.933,32.221C40.919,32.221 38.835,17.893 38.821,17.795ZM34.378,16.689C34.102,16.773 33.798,16.871 33.467,16.983C33.467,16.507 33.398,15.834 33.191,15.274C33.895,15.386 34.24,16.198 34.378,16.689ZM32.846,17.165C32.225,17.361 31.549,17.571 30.872,17.781C31.066,17.039 31.424,16.31 31.866,15.82C32.032,15.638 32.266,15.442 32.528,15.33C32.804,15.876 32.86,16.647 32.846,17.165ZM31.576,14.686C31.797,14.686 31.976,14.728 32.128,14.84C31.88,14.966 31.631,15.162 31.411,15.414C30.817,16.058 30.362,17.053 30.182,18.019C29.617,18.201 29.065,18.369 28.568,18.523C28.899,16.997 30.155,14.728 31.576,14.686Z" style="fill:rgb(149,191,71);fill-rule:nonzero;"/>
                <path d="M38.655,17.641C38.586,17.641 37.22,17.613 37.22,17.613C37.22,17.613 36.075,16.493 35.964,16.367C35.923,16.325 35.868,16.297 35.813,16.297L35.813,33.51L40.932,32.221C40.932,32.221 38.849,17.894 38.835,17.796C38.807,17.697 38.724,17.641 38.655,17.641Z" style="fill:rgb(94,142,62);fill-rule:nonzero;"/>
                <path d="M32.972,20.317L32.379,22.572C32.379,22.572 31.716,22.264 30.93,22.32C29.77,22.39 29.77,23.132 29.77,23.314C29.839,24.323 32.448,24.547 32.599,26.914C32.71,28.777 31.633,30.051 30.06,30.149C28.183,30.247 27.148,29.127 27.148,29.127L27.549,27.404C27.549,27.404 28.597,28.202 29.425,28.146C29.964,28.118 30.171,27.656 30.143,27.348C30.06,26.032 27.935,26.116 27.797,23.945C27.687,22.124 28.86,20.289 31.454,20.121C32.461,20.051 32.972,20.317 32.972,20.317Z" style="fill:white;fill-rule:nonzero;"/>
                <path d="M47.862,25.117C47.268,24.795 46.965,24.515 46.965,24.137C46.965,23.66 47.392,23.352 48.055,23.352C48.828,23.352 49.518,23.674 49.518,23.674L50.056,21.994C50.056,21.994 49.559,21.602 48.096,21.602C46.054,21.602 44.632,22.792 44.632,24.459C44.632,25.411 45.295,26.125 46.178,26.644C46.896,27.05 47.144,27.344 47.144,27.778C47.144,28.226 46.785,28.59 46.123,28.59C45.143,28.59 44.205,28.072 44.205,28.072L43.625,29.753C43.625,29.753 44.481,30.341 45.93,30.341C48.027,30.341 49.545,29.291 49.545,27.4C49.531,26.378 48.772,25.649 47.862,25.117Z" style="fill-rule:nonzero;"/>
                <path d="M56.226,21.578C55.191,21.578 54.376,22.082 53.755,22.838L53.728,22.824L54.625,18.063L52.293,18.063L50.016,30.191L52.348,30.191L53.121,26.046C53.424,24.477 54.225,23.511 54.97,23.511C55.494,23.511 55.701,23.875 55.701,24.393C55.701,24.715 55.674,25.121 55.605,25.444L54.721,30.191L57.054,30.191L57.964,25.289C58.061,24.771 58.13,24.155 58.13,23.735C58.144,22.39 57.454,21.578 56.226,21.578Z" style="fill-rule:nonzero;"/>
                <path d="M63.428,21.57C60.613,21.57 58.75,24.147 58.75,27.019C58.75,28.853 59.868,30.338 61.965,30.338C64.725,30.338 66.588,27.831 66.588,24.89C66.602,23.195 65.622,21.57 63.428,21.57ZM62.283,28.531C61.482,28.531 61.151,27.845 61.151,26.977C61.151,25.618 61.841,23.405 63.111,23.405C63.939,23.405 64.215,24.133 64.215,24.834C64.215,26.29 63.511,28.531 62.283,28.531Z" style="fill-rule:nonzero;"/>
                <path d="M72.574,21.57C71.001,21.57 70.104,22.985 70.104,22.985L70.077,22.985L70.215,21.71L68.144,21.71C68.048,22.565 67.855,23.881 67.675,24.862L66.047,33.545L68.379,33.545L69.028,30.03L69.083,30.03C69.083,30.03 69.566,30.338 70.449,30.338C73.195,30.338 74.989,27.481 74.989,24.596C74.989,22.999 74.286,21.57 72.574,21.57ZM70.339,28.559C69.732,28.559 69.373,28.209 69.373,28.209L69.759,25.996C70.035,24.512 70.794,23.531 71.608,23.531C72.326,23.531 72.547,24.203 72.547,24.834C72.547,26.374 71.65,28.559 70.339,28.559Z" style="fill-rule:nonzero;"/>
                <path d="M78.331,18.172C77.586,18.172 76.992,18.774 76.992,19.544C76.992,20.245 77.434,20.735 78.096,20.735L78.124,20.735C78.855,20.735 79.476,20.231 79.49,19.362C79.49,18.676 79.035,18.172 78.331,18.172Z" style="fill-rule:nonzero;"/>
                <path d="M75.063,30.177L77.395,30.177L78.982,21.773L76.636,21.773L75.063,30.177Z" style="fill-rule:nonzero;"/>
                <path d="M84.926,21.756L83.298,21.756L83.381,21.364C83.519,20.552 83.988,19.837 84.774,19.837C85.188,19.837 85.52,19.964 85.52,19.964L85.975,18.101C85.975,18.101 85.575,17.891 84.705,17.891C83.877,17.891 83.049,18.129 82.415,18.675C81.614,19.361 81.242,20.356 81.062,21.364L80.993,21.756L79.903,21.756L79.558,23.549L80.648,23.549L79.406,30.188L81.738,30.188L82.98,23.549L84.595,23.549L84.926,21.756Z" style="fill-rule:nonzero;"/>
                <path d="M90.558,21.773C90.558,21.773 89.095,25.513 88.446,27.558L88.419,27.558C88.377,26.9 87.839,21.773 87.839,21.773L85.383,21.773L86.79,29.491C86.818,29.659 86.804,29.771 86.735,29.883C86.459,30.415 86.004,30.933 85.465,31.311C85.024,31.633 84.527,31.843 84.141,31.984L84.789,34C85.258,33.902 86.252,33.496 87.08,32.712C88.143,31.703 89.136,30.135 90.144,28.006L93,21.773L90.558,21.773Z" style="fill-rule:nonzero;"/>
            </g>
        </g>
    </g>
    <g>
        <path d="M100,224C100,212.962 91.038,204 80,204L28,204C16.962,204 8,212.962 8,224C8,235.038 16.962,244 28,244L80,244C91.038,244 100,235.038 100,224Z" style="fill:url(#_Linear3);"/>
        <path d="M99.5,224C99.5,213.238 90.762,204.5 80,204.5L28,204.5C17.238,204.5 8.5,213.238 8.5,224C8.5,234.762 17.238,243.5 28,243.5L80,243.5C90.762,243.5 99.5,234.762 99.5,224Z" style="fill:none;stroke:rgb(20,20,18);stroke-opacity:0.05;stroke-width:1px;"/>
        <g>
            <path d="M32.64,221.78C32.64,222.8 31.8,223.64 30.78,223.64C29.76,223.64 28.92,222.8 28.92,221.78C28.92,220.76 29.76,219.92 30.78,219.92C31.8,219.92 32.64,220.76 32.64,221.78ZM30.78,224.36C29.76,224.36 28.92,225.2 28.92,226.22C28.92,227.24 29.76,228.08 30.78,228.08C31.8,228.08 32.64,227.24 32.64,226.22C32.64,225.2 31.8,224.36 30.78,224.36ZM42,224C42,228.98 37.98,233 33,233C28.02,233 24,228.98 24,224C24,219.02 28.02,215 33,215C37.98,215 42,219.02 42,224ZM39.6,224C39.6,220.34 36.66,217.4 33,217.4C29.34,217.4 26.4,220.34 26.4,224C26.4,227.66 29.34,230.6 33,230.6C36.66,230.6 39.6,227.66 39.6,224ZM35.22,224.36C34.2,224.36 33.36,225.2 33.36,226.22C33.36,227.24 34.2,228.08 35.22,228.08C36.24,228.08 37.08,227.24 37.08,226.22C37.08,225.2 36.24,224.36 35.22,224.36ZM35.22,219.92C34.2,219.92 33.36,220.76 33.36,221.78C33.36,222.8 34.2,223.64 35.22,223.64C36.24,223.64 37.08,222.8 37.08,221.78C37.08,220.76 36.24,219.92 35.22,219.92ZM66.18,218.54C66.24,218.54 66.3,218.6 66.36,218.66L66.36,220.58C66.36,220.7 66.24,220.76 66.18,220.76L63,220.76C62.88,220.76 62.82,220.64 62.82,220.58L62.82,218.72C62.82,218.6 62.94,218.54 63,218.54L66.18,218.54ZM66.12,221.24L60,221.24C59.94,221.24 59.82,221.3 59.82,221.42L59.04,224.42L58.98,224.6L58.02,221.42C58.02,221.36 57.9,221.24 57.84,221.24L55.44,221.24C55.38,221.24 55.26,221.3 55.26,221.42L54.36,224.42L54.3,224.6L54.24,224.42L53.52,221.42C53.52,221.36 53.4,221.24 53.34,221.24L48.54,221.24L48.54,218.66C48.54,218.6 48.42,218.48 48.3,218.54L45.3,219.5C45.18,219.5 45.12,219.56 45.12,219.68L45.12,221.3L44.34,221.3C44.28,221.3 44.16,221.36 44.16,221.48L44.16,223.76C44.16,223.82 44.22,223.94 44.34,223.94L45.12,223.94L45.12,226.76C45.12,228.74 46.2,229.64 48.18,229.64C49.02,229.64 49.8,229.46 50.34,229.16L50.34,226.76C50.34,226.64 50.22,226.58 50.16,226.64C49.86,226.76 49.56,226.82 49.32,226.82C48.78,226.82 48.48,226.58 48.48,225.98L48.48,223.94L50.22,223.94C50.28,223.94 50.4,223.88 50.4,223.76L50.4,221.84L52.68,229.4C52.68,229.46 52.8,229.58 52.86,229.58L55.38,229.58C55.44,229.58 55.56,229.52 55.56,229.4L56.64,226.04L57.18,227.78L57.66,229.4C57.66,229.46 57.78,229.58 57.84,229.58L60.36,229.58C60.42,229.58 60.54,229.52 60.54,229.4L62.82,221.84L62.82,229.4C62.82,229.46 62.88,229.58 63,229.58L66.06,229.58C66.12,229.58 66.24,229.52 66.24,229.4L66.24,221.42C66.24,221.36 66.18,221.24 66.12,221.24ZM70.14,218.54L67.08,218.54C67.02,218.54 66.9,218.6 66.9,218.72L66.9,229.34C66.9,229.4 66.96,229.52 67.08,229.52L70.14,229.52C70.2,229.52 70.32,229.46 70.32,229.34L70.32,218.66C70.32,218.6 70.26,218.54 70.14,218.54ZM74.22,218.54L71.04,218.54C70.98,218.54 70.86,218.6 70.86,218.72L70.86,220.58C70.86,220.64 70.92,220.76 71.04,220.76L74.22,220.76C74.28,220.76 74.4,220.7 74.4,220.58L74.4,218.66C74.4,218.6 74.34,218.54 74.22,218.54ZM74.16,221.24L71.1,221.24C71.04,221.24 70.92,221.3 70.92,221.42L70.92,229.28C70.92,229.34 70.98,229.46 71.1,229.46L74.16,229.46C74.22,229.46 74.34,229.4 74.34,229.28L74.34,221.42C74.34,221.36 74.28,221.24 74.16,221.24ZM83.82,225.32C83.82,227.6 81.9,229.58 79.2,229.58C76.56,229.58 74.64,227.6 74.64,225.32C74.64,223.04 76.56,221.06 79.26,221.06C81.9,221.06 83.82,223.04 83.82,225.32ZM80.58,225.38C80.58,224.54 79.98,223.88 79.26,223.94C78.48,223.94 77.94,224.6 77.94,225.38C77.94,226.16 78.54,226.82 79.26,226.82C80.04,226.82 80.58,226.16 80.58,225.38Z" style="fill:rgb(242,47,70);fill-rule:nonzero;"/>
        </g>
    </g>
    <g>
        <path d="M140,124C140,112.962 131.038,104 120,104L88,104C76.962,104 68,112.962 68,124C68,135.038 76.962,144 88,144L120,144C131.038,144 140,135.038 140,124Z" style="fill:url(#_Linear4);"/>
        <path d="M139.5,124C139.5,113.238 130.762,104.5 120,104.5L88,104.5C77.238,104.5 68.5,113.238 68.5,124C68.5,134.762 77.238,143.5 88,143.5L120,143.5C130.762,143.5 139.5,134.762 139.5,124Z" style="fill:none;stroke:rgb(20,20,18);stroke-opacity:0.05;stroke-width:1px;"/>
        <path d="M124,124.267C124,121.533 122.622,119.375 119.989,119.375C117.344,119.375 115.744,121.533 115.744,124.246C115.744,127.461 117.633,129.084 120.344,129.084C121.667,129.084 122.667,128.796 123.422,128.39L123.422,126.254C122.667,126.617 121.8,126.841 120.7,126.841C119.622,126.841 118.667,126.478 118.544,125.218L123.978,125.218C123.978,125.079 124,124.523 124,124.267ZM118.511,123.252C118.511,122.045 119.278,121.543 119.978,121.543C120.656,121.543 121.378,122.045 121.378,123.252L118.511,123.252ZM111.456,119.375C110.367,119.375 109.667,119.866 109.278,120.208L109.133,119.546L106.689,119.546L106.689,132L109.467,131.434L109.478,128.411C109.878,128.689 110.467,129.084 111.444,129.084C113.433,129.084 115.244,127.546 115.244,124.16C115.233,121.063 113.4,119.375 111.456,119.375ZM110.789,126.734C110.133,126.734 109.744,126.51 109.478,126.232L109.467,122.27C109.756,121.96 110.156,121.746 110.789,121.746C111.8,121.746 112.5,122.836 112.5,124.235C112.5,125.666 111.811,126.734 110.789,126.734ZM102.867,118.745L105.656,118.168L105.656,116L102.867,116.566L102.867,118.745ZM102.867,119.557L105.656,119.557L105.656,128.903L102.867,128.903L102.867,119.557ZM99.878,120.347L99.7,119.557L97.3,119.557L97.3,128.903L100.078,128.903L100.078,122.569C100.733,121.746 101.844,121.896 102.189,122.013L102.189,119.557C101.833,119.429 100.533,119.194 99.878,120.347ZM94.322,117.239L91.611,117.794L91.6,126.35C91.6,127.931 92.833,129.095 94.478,129.095C95.389,129.095 96.056,128.935 96.422,128.742L96.422,126.574C96.067,126.713 94.311,127.204 94.311,125.623L94.311,121.832L96.422,121.832L96.422,119.557L94.311,119.557L94.322,117.239ZM86.811,122.27C86.811,121.853 87.167,121.693 87.756,121.693C88.6,121.693 89.667,121.939 90.511,122.377L90.511,119.866C89.589,119.514 88.678,119.375 87.756,119.375C85.5,119.375 84,120.507 84,122.398C84,125.346 88.222,124.876 88.222,126.147C88.222,126.638 87.778,126.798 87.156,126.798C86.233,126.798 85.056,126.435 84.122,125.944L84.122,128.486C85.156,128.913 86.2,129.095 87.156,129.095C89.467,129.095 91.056,127.995 91.056,126.083C91.044,122.9 86.811,123.466 86.811,122.27Z" style="fill:rgb(99,91,255);"/>
    </g>
    <g>
        <path d="M760,124C760,112.962 751.038,104 740,104L669,104C657.962,104 649,112.962 649,124C649,135.038 657.962,144 669,144L740,144C751.038,144 760,135.038 760,124Z" style="fill:url(#_Linear5);"/>
        <path d="M759.5,124C759.5,113.238 750.762,104.5 740,104.5L669,104.5C658.238,104.5 649.5,113.238 649.5,124C649.5,134.762 658.238,143.5 669,143.5L740,143.5C750.762,143.5 759.5,134.762 759.5,124Z" style="fill:none;stroke:rgb(20,20,18);stroke-opacity:0.05;stroke-width:1px;"/>
        <g>
            <path d="M675,126L673,124L675,122L677,124L675,126ZM673.208,120.792L671.208,118.792L673.938,116.062C674.09,115.91 674.257,115.799 674.438,115.729C674.618,115.66 674.806,115.625 675,115.625C675.194,115.625 675.382,115.66 675.562,115.729C675.743,115.799 675.91,115.91 676.062,116.062L678.792,118.792L676.792,120.792L675,119L673.208,120.792ZM669.792,127.792L667.062,125.062C666.91,124.91 666.799,124.743 666.729,124.562C666.66,124.382 666.625,124.194 666.625,124C666.625,123.806 666.66,123.618 666.729,123.438C666.799,123.257 666.91,123.09 667.062,122.938L669.792,120.208L671.792,122.208L670,124L671.792,125.792L669.792,127.792ZM680.208,127.792L678.208,125.792L680,124L678.208,122.208L680.208,120.208L682.938,122.938C683.09,123.09 683.201,123.257 683.271,123.438C683.34,123.618 683.375,123.806 683.375,124C683.375,124.194 683.34,124.382 683.271,124.562C683.201,124.743 683.09,124.91 682.938,125.062L680.208,127.792ZM673.938,131.938L671.208,129.208L673.208,127.208L675,129L676.792,127.208L678.792,129.208L676.062,131.938C675.91,132.09 675.743,132.201 675.562,132.271C675.382,132.34 675.194,132.375 675,132.375C674.806,132.375 674.618,132.34 674.438,132.271C674.257,132.201 674.09,132.09 673.938,131.938Z" style="fill:rgb(20,20,18);fill-rule:nonzero;"/>
        </g>
        <path d="M694.424,130L694.424,118.8L696.088,118.8L699.8,124.288L703.496,118.8L705.16,118.8L705.16,130L703.592,130L703.592,121.328L699.784,126.944L695.992,121.344L695.992,130L694.424,130ZM708.61,133.392C708.375,133.392 708.114,133.349 707.826,133.264C707.549,133.179 707.261,133.067 706.962,132.928L707.522,131.68C707.757,131.787 707.959,131.867 708.13,131.92C708.311,131.973 708.455,132 708.562,132C708.829,132 709.053,131.925 709.234,131.776C709.426,131.627 709.581,131.419 709.698,131.152L710.626,128.96L713.474,122L715.106,122L711.314,130.992C711.111,131.483 710.898,131.909 710.674,132.272C710.45,132.635 710.173,132.912 709.842,133.104C709.522,133.296 709.111,133.392 708.61,133.392ZM710.21,130L706.706,122L708.322,122L711.218,128.944L711.682,130L710.21,130ZM728.293,130L723.861,118.8L725.461,118.8L729.973,130L728.293,130ZM719.269,130L723.781,118.8L725.381,118.8L720.949,130L719.269,130ZM721.397,127.008L721.397,125.6L727.845,125.6L727.845,127.008L721.397,127.008ZM731.533,130L731.533,118.8L735.309,118.8C736.056,118.8 736.712,118.955 737.277,119.264C737.853,119.563 738.301,119.984 738.621,120.528C738.952,121.061 739.117,121.685 739.117,122.4C739.117,123.093 738.968,123.712 738.669,124.256C738.371,124.8 737.955,125.227 737.421,125.536C736.899,125.845 736.296,126 735.613,126L733.101,126L733.101,130L731.533,130ZM733.101,124.544L735.597,124.544C736.163,124.544 736.627,124.347 736.989,123.952C737.352,123.547 737.533,123.029 737.533,122.4C737.533,121.749 737.32,121.227 736.893,120.832C736.477,120.437 735.944,120.24 735.293,120.24L733.101,120.24L733.101,124.544ZM740.908,130L740.908,118.8L742.476,118.8L742.476,130L740.908,130Z" style="fill:rgb(20,20,18);fill-rule:nonzero;"/>
    </g>
    <path d="M329,129L297,129" style="fill:none;fill-rule:nonzero;stroke:url(#_Linear6);stroke-width:1px;stroke-linecap:round;"/>
    <path d="M622,133L582,133" style="fill:none;fill-rule:nonzero;stroke:url(#_Linear7);stroke-width:1px;stroke-linecap:round;"/>
    <path d="M475,127L443,127" style="fill:none;fill-rule:nonzero;stroke:url(#_Linear8);stroke-width:1px;stroke-linecap:round;"/>
    <path d="M282,123L202,123" style="fill:none;fill-rule:nonzero;stroke:url(#_Linear9);stroke-width:1px;stroke-linecap:round;"/>
    <path d="M571,121L491,121" style="fill:none;fill-rule:nonzero;stroke:url(#_Linear10);stroke-width:1px;stroke-linecap:round;"/>
    <path d="M240.814,152.186L229.5,163.5" style="fill:none;fill-rule:nonzero;stroke:url(#_Linear11);stroke-width:1px;stroke-linecap:round;"/>
    <path d="M205.971,190.029L189,207" style="fill:none;fill-rule:nonzero;stroke:url(#_Linear12);stroke-width:1px;stroke-linecap:round;"/>
    <g>
        <circle cx="384" cy="124" r="20" style="fill:rgb(0,68,204);"/>
    </g>
    <path d="M420,94C420,90.689 417.311,88 414,88L354,88C350.689,88 348,90.689 348,94L348,154C348,157.311 350.689,160 354,160L414,160C417.311,160 420,157.311 420,154L420,94Z" style="fill:white;"/>
    <path d="M419.5,94C419.5,90.964 417.036,88.5 414,88.5L354,88.5C350.964,88.5 348.5,90.964 348.5,94L348.5,154C348.5,157.036 350.964,159.5 354,159.5L414,159.5C417.036,159.5 419.5,157.036 419.5,154L419.5,94Z" style="fill:none;stroke:rgb(204,218,245);stroke-opacity:0.5;stroke-width:1px;"/>
    <g>
        <path d="M418,94C418,91.792 416.208,90 414,90L354,90C351.792,90 350,91.792 350,94L350,154C350,156.208 351.792,158 354,158L414,158C416.208,158 418,156.208 418,154L418,94Z" style="fill:url(#_Linear13);"/>
        <path d="M417.5,94C417.5,92.068 415.932,90.5 414,90.5L354,90.5C352.068,90.5 350.5,92.068 350.5,94L350.5,154C350.5,155.932 352.068,157.5 354,157.5L414,157.5C415.932,157.5 417.5,155.932 417.5,154L417.5,94Z" style="fill:none;stroke:rgb(204,218,245);stroke-width:1px;"/>
        <path d="M395.156,119.941C395.378,119.941 395.599,120.109 395.71,120.333C395.821,120.557 395.765,120.837 395.599,121.005L381.76,135C377.94,138.863 371.685,138.863 367.865,135C364.045,131.137 364.045,124.812 367.865,120.949L375.836,112.888C378.106,110.593 381.206,109.697 384.14,110.089C384.362,110.145 384.528,110.257 384.638,110.481C384.694,110.705 384.638,110.929 384.472,111.097L382.701,112.888C382.424,113.168 382.092,113.336 381.76,113.392C380.431,113.616 379.158,114.232 378.161,115.239L370.19,123.3C367.643,125.875 367.643,130.074 370.19,132.649C372.736,135.224 376.888,135.224 379.435,132.649L389.344,122.628L387.738,121.005C387.572,120.837 387.517,120.557 387.628,120.333C387.738,120.109 387.96,119.941 388.181,119.941L395.156,119.941ZM380.874,128.059C381.095,128.059 381.317,127.891 381.428,127.667C381.538,127.443 381.483,127.163 381.317,126.995L379.711,125.372L389.621,115.351C392.167,112.776 396.319,112.776 398.866,115.351C401.412,117.926 401.412,122.125 398.866,124.7L390.839,132.761C389.842,133.768 388.569,134.384 387.24,134.608C386.853,134.664 386.521,134.832 386.299,135.112L384.528,136.903C384.362,137.071 384.306,137.295 384.362,137.519C384.417,137.743 384.638,137.911 384.86,137.911C387.794,138.303 390.894,137.407 393.164,135.112L401.135,127.051C404.955,123.188 404.955,116.863 401.135,113C397.315,109.137 391.06,109.137 387.24,113L373.401,126.995C373.235,127.163 373.179,127.443 373.29,127.667C373.401,127.891 373.622,128.059 373.844,128.059L380.874,128.059Z" style="fill:rgb(0,68,204);fill-rule:nonzero;"/>
    </g>
    <path d="M221.569,70.569L193.284,42.284L177.105,26.105C176.703,25.703 176.26,25.339 175.773,25.046C171.65,22.565 169.622,23 163,23L144.5,23" style="fill:none;fill-rule:nonzero;stroke:url(#_Linear14);stroke-width:1px;stroke-linecap:round;"/>
    <defs>
        <linearGradient id="_Linear1" x1="0" y1="0" x2="1" y2="0" gradientUnits="userSpaceOnUse" gradientTransform="matrix(2.44929e-15,40,-40,2.44929e-15,58.5,4)"><stop offset="0" style="stop-color:white;stop-opacity:1"/><stop offset="1" style="stop-color:rgb(250,250,250);stop-opacity:1"/></linearGradient>
        <linearGradient id="_Linear3" x1="0" y1="0" x2="1" y2="0" gradientUnits="userSpaceOnUse" gradientTransform="matrix(2.44929e-15,40,-40,2.44929e-15,54,204)"><stop offset="0" style="stop-color:white;stop-opacity:1"/><stop offset="1" style="stop-color:rgb(250,250,250);stop-opacity:1"/></linearGradient>
        <linearGradient id="_Linear4" x1="0" y1="0" x2="1" y2="0" gradientUnits="userSpaceOnUse" gradientTransform="matrix(2.44929e-15,40,-40,2.44929e-15,104,104)"><stop offset="0" style="stop-color:white;stop-opacity:1"/><stop offset="1" style="stop-color:rgb(250,250,250);stop-opacity:1"/></linearGradient>
        <linearGradient id="_Linear5" x1="0" y1="0" x2="1" y2="0" gradientUnits="userSpaceOnUse" gradientTransform="matrix(2.44929e-15,40,-40,2.44929e-15,704.5,104)"><stop offset="0" style="stop-color:white;stop-opacity:1"/><stop offset="1" style="stop-color:rgb(250,250,250);stop-opacity:1"/></linearGradient>
        <linearGradient id="_Linear6" x1="0" y1="0" x2="1" y2="0" gradientUnits="userSpaceOnUse" gradientTransform="matrix(32,0,0,32,297.125,-1.4297e+06)"><stop offset="0" style="stop-color:rgb(0,68,204);stop-opacity:0"/><stop offset="1" style="stop-color:rgb(0,68,204);stop-opacity:1"/></linearGradient>
        <linearGradient id="_Linear7" x1="0" y1="0" x2="1" y2="0" gradientUnits="userSpaceOnUse" gradientTransform="matrix(40,0,0,40,582.125,-1.4297e+06)"><stop offset="0" style="stop-color:rgb(0,68,204);stop-opacity:0"/><stop offset="1" style="stop-color:rgb(0,68,204);stop-opacity:1"/></linearGradient>
        <linearGradient id="_Linear8" x1="0" y1="0" x2="1" y2="0" gradientUnits="userSpaceOnUse" gradientTransform="matrix(32,0,0,32,443.125,-1.42971e+06)"><stop offset="0" style="stop-color:rgb(0,68,204);stop-opacity:0"/><stop offset="1" style="stop-color:rgb(0,68,204);stop-opacity:1"/></linearGradient>
        <linearGradient id="_Linear9" x1="0" y1="0" x2="1" y2="0" gradientUnits="userSpaceOnUse" gradientTransform="matrix(80,0,0,80,201.938,-1.42971e+06)"><stop offset="0" style="stop-color:rgb(0,68,204);stop-opacity:0"/><stop offset="1" style="stop-color:rgb(0,68,204);stop-opacity:1"/></linearGradient>
        <linearGradient id="_Linear10" x1="0" y1="0" x2="1" y2="0" gradientUnits="userSpaceOnUse" gradientTransform="matrix(80,0,0,80,490.938,-1.42971e+06)"><stop offset="0" style="stop-color:rgb(0,68,204);stop-opacity:0"/><stop offset="1" style="stop-color:rgb(0,68,204);stop-opacity:1"/></linearGradient>
        <linearGradient id="_Linear11" x1="0" y1="0" x2="1" y2="0" gradientUnits="userSpaceOnUse" gradientTransform="matrix(2e-06,0,0,2e-06,8.3558e+13,8.3558e+13)"><stop offset="0" style="stop-color:rgb(0,68,204);stop-opacity:0"/><stop offset="1" style="stop-color:rgb(0,68,204);stop-opacity:1"/></linearGradient>
        <linearGradient id="_Linear12" x1="0" y1="0" x2="1" y2="0" gradientUnits="userSpaceOnUse" gradientTransform="matrix(2e-06,0,0,2e-06,8.3558e+13,8.3558e+13)"><stop offset="0" style="stop-color:rgb(0,68,204);stop-opacity:0"/><stop offset="1" style="stop-color:rgb(0,68,204);stop-opacity:1"/></linearGradient>
        <linearGradient id="_Linear13" x1="0" y1="0" x2="1" y2="0" gradientUnits="userSpaceOnUse" gradientTransform="matrix(4.1638e-15,68,-68,4.1638e-15,384,90)"><stop offset="0" style="stop-color:white;stop-opacity:1"/><stop offset="1" style="stop-color:rgb(250,250,250);stop-opacity:1"/></linearGradient>
        <linearGradient id="_Linear14" x1="0" y1="0" x2="1" y2="0" gradientUnits="userSpaceOnUse" gradientTransform="matrix(71,55.5,-55.5,71,148,15)"><stop offset="0" style="stop-color:rgb(0,68,204);stop-opacity:0"/><stop offset="1" style="stop-color:rgb(0,68,204);stop-opacity:1"/></linearGradient>
    </defs>
</svg>