
<svg width="133" height="32" viewBox="0 0 133 32" fill="none" xmlns="http://www.w3.org/2000/svg">
<g clip-path="url(#clip0_278_40838)">
<g clip-path="url(#clip1_278_40838)">
<path d="M4.04675 14.865C4.1271 14.0967 4.29538 13.382 4.54401 12.7417C4.91241 11.7933 5.42483 10.9773 6.06763 10.3162C6.70892 9.65659 7.47149 9.14141 8.33414 8.78555C9.19678 8.42969 10.1397 8.24952 11.1342 8.24952C12.2788 8.24952 13.3037 8.56518 14.18 9.18905C15.0684 9.82038 15.8856 10.8403 16.6102 12.2191L16.7376 12.4618L18.4795 11.3332L18.3536 11.1307C17.9777 10.5276 17.5214 9.94248 16.9953 9.39156C16.4662 8.83618 15.8567 8.34035 15.1821 7.91599C14.5059 7.49163 13.7479 7.14619 12.9277 6.89008C12.103 6.63249 11.1919 6.50146 10.2185 6.50146C9.20436 6.50146 8.23556 6.6176 7.3396 6.8469C6.4421 7.0762 5.60372 7.40527 4.84722 7.82367C4.09071 8.24207 3.40091 8.74981 2.80056 9.332C2.2002 9.9127 1.68324 10.5619 1.26481 11.2617C0.846375 11.96 0.523461 12.7194 0.302118 13.519C0.186899 13.9389 0.098969 14.3737 0.044391 14.8129L0.00952148 15.0884H4.02249L4.04675 14.865Z" fill="#141412" fill-opacity="0.75"/>
<path d="M16.6497 19.6834C16.4072 20.1584 16.0903 20.6363 15.7083 21.1008C15.3262 21.5654 14.8896 21.9883 14.4075 22.359C13.9284 22.7268 13.4024 23.0305 12.843 23.2584C12.2927 23.4832 11.7135 23.5963 11.1207 23.5963C10.1065 23.5963 9.15442 23.4222 8.29177 23.0782C7.43067 22.7357 6.67265 22.234 6.04046 21.5877C5.40675 20.9401 4.90191 20.136 4.53806 19.1964C4.28033 18.5294 4.11054 17.7849 4.03625 16.9824L4.01503 16.759H-0.000976562L0.0293439 17.0315C0.126371 17.916 0.352262 18.7766 0.69792 19.5911C1.18002 20.7242 1.87286 21.7277 2.75367 22.5764C3.63601 23.4237 4.70785 24.1056 5.93888 24.5999C7.17142 25.0943 8.56164 25.3459 10.0686 25.3459C11.1116 25.3459 12.0728 25.2178 12.9233 24.9647C13.7723 24.7116 14.547 24.3662 15.2232 23.9373C15.8978 23.51 16.5012 23.0097 17.0166 22.4544C17.5275 21.9034 17.9763 21.3182 18.3522 20.7167L18.4811 20.5112L16.7725 19.4406L16.6497 19.6834Z" fill="#141412" fill-opacity="0.75"/>
<path d="M75.5524 6.896H73.7317V15.0853H75.5524V6.896Z" fill="#141412" fill-opacity="0.75"/>
<path d="M62.2522 6.896H60.2056V15.0853H62.0673V11.3689L65.3708 15.0853H69.7218L62.2522 6.896Z" fill="#141412" fill-opacity="0.75"/>
<path d="M62.0673 16.759H60.2056V24.935H62.0673V16.759Z" fill="#141412" fill-opacity="0.75"/>
<path d="M73.7319 19.4824L71.2472 16.759H66.8582L74.4884 25.3444H75.5542V16.759H73.7319V19.4824Z" fill="#141412" fill-opacity="0.75"/>
<path d="M96.5046 11.3377L98.257 15.0854H101.863L97.8403 6.5H96.7666L92.646 15.0854H94.7014L96.5046 11.3377Z" fill="#141412" fill-opacity="0.75"/>
<path d="M91.8439 16.759L87.9216 24.9351H89.9835L92.7991 19.0863L93.1707 18.321H99.7772L100.079 18.9449L102.867 24.9351H106.478L102.648 16.759H91.8439Z" fill="#141412" fill-opacity="0.75"/>
<path d="M37.8654 11.3377L39.6164 15.0854H43.2231L39.201 6.5H38.1277L34.0071 15.0854H36.0613L37.8654 11.3377Z" fill="#141412" fill-opacity="0.75"/>
<path d="M33.205 16.759L29.2815 24.9351H31.3448L34.1601 19.0863L34.5315 18.321H41.137L41.4387 18.9449L44.2282 24.9351H47.8379L44.0069 16.759H33.205Z" fill="#141412" fill-opacity="0.75"/>
<path d="M123.772 6.896H120.267V15.0853H123.772V6.896Z" fill="#141412" fill-opacity="0.75"/>
<path d="M123.772 23.3045V16.759H120.267V24.935H132.771V23.3045H123.772Z" fill="#141412" fill-opacity="0.75"/>
</g>
</g>
<defs>
<clipPath id="clip0_278_40838">
<rect width="133" height="32" fill="white" transform="translate(-0.000976562)"/>
</clipPath>
<clipPath id="clip1_278_40838">
<rect width="133" height="19" fill="white" transform="translate(-0.000976562 6.5)"/>
</clipPath>
</defs>
</svg>
