
<svg width="130" height="32" viewBox="0 0 130 32" fill="none" xmlns="http://www.w3.org/2000/svg">
<g clip-path="url(#clip0_278_40858)">
<g clip-path="url(#clip1_278_40858)">
<g clip-path="url(#clip2_278_40858)">
<path d="M8.7644 21.7599C5.56622 21.7599 3.01952 19.1799 3.01952 15.9399C3.01952 12.6999 5.56622 10.1199 8.7644 10.1199C10.63 10.1199 12.466 11.0799 13.4728 12.6099L16.0195 11.0799C14.5093 8.6799 11.7849 7.1499 8.7644 7.1499C3.96713 7.1499 -0.000976562 11.1699 -0.000976562 16.0299C-0.000976562 20.8899 3.96713 24.9099 8.7644 24.9099C11.7849 24.9099 14.4204 23.3799 16.0195 20.9799L13.4728 19.4499C12.3475 20.7999 10.6596 21.7599 8.7644 21.7599ZM127.067 7.1499H129.999V24.5499H127.067V7.1499ZM77.9102 7.1499L73.0537 15.5499L68.1676 7.1499H64.466V24.5499H67.3977V11.6199L72.0172 19.5399H74.0605L78.7986 11.6199V24.5499H81.7302V7.1499H77.9102ZM58.6027 13.9299H62.5708V10.9599H58.6027V7.1499H55.671V19.4799C55.671 22.4499 57.0036 24.6399 60.6756 24.6399H62.5412V21.5799H60.8532C58.7803 21.5799 58.4842 20.5299 58.4842 19.4799V18.9999L58.6027 13.9299ZM44.5366 17.8299V10.9299H41.6049V12.1299C40.4797 11.2599 39.1471 10.8699 37.7257 10.8699C33.9352 10.8699 30.8259 14.0199 30.8259 17.8599C30.8259 21.6999 33.9352 24.8499 37.7257 24.8499C39.2359 24.8499 40.45 24.3699 41.6049 23.5899V24.5499H44.5366V17.8299ZM37.6368 21.7599C35.5639 21.7599 33.7576 20.0499 33.7576 17.8299C33.7576 15.6099 35.4455 13.8999 37.6368 13.8999C39.7097 13.8999 41.5161 15.6099 41.5161 17.8299C41.5161 20.0499 39.8282 21.7599 37.6368 21.7599ZM90.0514 24.8199C86.261 24.8199 83.1516 21.6699 83.1516 17.8299C83.1516 13.9899 86.261 10.8399 90.0514 10.8399C93.8419 10.8399 96.9512 13.9899 96.9512 17.8299C96.8623 21.6699 93.8419 24.8199 90.0514 24.8199ZM90.0514 13.9299C87.9785 13.9299 86.1721 15.6399 86.1721 17.8599C86.1721 20.0799 87.8601 21.7899 90.0514 21.7899C92.2428 21.7899 93.9307 20.0799 93.9307 17.8599C93.9307 15.7599 92.2132 13.9299 90.0514 13.9299ZM49.8373 15.5499C49.5708 16.0599 49.4523 16.5999 49.4523 17.2299V24.5499H46.5207V10.9299H49.4523V12.0699C49.6004 11.9799 49.8373 11.8299 50.4888 11.5599C51.081 11.3199 52.2655 10.9599 53.8054 10.9299H54.368V13.8999H53.8646C53.7758 13.8999 53.2131 13.8999 52.8282 13.9299C52.5617 13.9599 51.7621 14.0199 51.1403 14.2899C50.5747 14.544 50.1141 14.9894 49.8373 15.5499ZM26.5024 20.4099V24.3399C26.4728 23.7399 26.5024 21.9699 26.5024 20.4099ZM23.6596 10.8699C22.5171 10.8834 21.4003 11.2156 20.4318 11.8299V7.1499H17.5002V24.5499H20.4318V17.7399C20.4318 17.0199 20.4614 16.4499 20.6391 15.9399C20.8464 15.3399 21.1425 14.9199 21.4683 14.6199C22.3567 13.8099 23.4227 13.8699 23.4227 13.8699C23.4227 13.8699 24.4888 13.8099 25.3772 14.6199C25.7029 14.9199 25.999 15.3399 26.2063 15.9399C26.384 16.4499 26.4136 17.0199 26.4136 17.7399V24.5499H29.3453V16.7199C29.4341 13.1799 26.9762 10.8699 23.6596 10.8699ZM122.181 10.9299V18.2199C122.181 19.3599 121.915 20.1999 121.322 20.7999C121.025 21.1064 120.67 21.3493 120.278 21.5142C119.887 21.6791 119.466 21.7626 119.042 21.7599C118.655 21.7763 118.269 21.7069 117.911 21.5567C117.553 21.4064 117.232 21.1789 116.969 20.8899C116.407 20.3199 116.111 19.5399 116.111 18.6699V10.9299H113.179V18.7299C113.179 20.4399 113.653 22.0599 114.689 23.1099C115.637 24.1599 116.969 24.6399 118.568 24.6399H118.598C120.02 24.6099 121.293 24.0699 122.152 23.1999V24.5499H125.054V10.9299H122.181ZM108.382 10.9299V12.0099C107.256 11.2299 105.924 10.8699 104.502 10.8699C100.712 10.8699 97.6027 14.0199 97.6027 17.8599C97.6027 21.6999 100.712 24.8499 104.502 24.8499C105.924 24.8499 107.227 24.3699 108.382 23.7099V23.9499C108.382 24.1599 108.352 24.6399 108.293 24.9699C108.115 25.8099 107.641 26.4999 106.96 27.0699C106.279 27.6399 105.42 27.8799 104.502 27.8799H104.384C102.874 27.7899 101.541 27.0999 100.682 25.9899L98.6095 28.0899C99.7348 29.7999 101.985 30.8499 104.443 30.8499H104.65C105.272 30.8499 105.924 30.7599 106.516 30.5799C107.553 30.3099 108.5 29.7699 109.27 28.9899C110.099 28.1499 110.692 27.0699 111.017 25.9299C111.195 25.2999 111.313 24.6399 111.313 23.9199V10.9299H108.382ZM104.562 21.7599C102.489 21.7599 100.682 20.0499 100.682 17.8299C100.682 15.6099 102.37 13.8999 104.562 13.8999C106.753 13.8999 108.441 15.6099 108.441 17.8299C108.441 20.0499 106.664 21.7599 104.562 21.7599Z" fill="#141412" fill-opacity="0.75"/>
</g>
</g>
</g>
<defs>
<clipPath id="clip0_278_40858">
<rect width="130" height="32" fill="white" transform="translate(-0.000976562)"/>
</clipPath>
<clipPath id="clip1_278_40858">
<rect width="130" height="24" fill="white" transform="translate(-0.000976562 7)"/>
</clipPath>
<clipPath id="clip2_278_40858">
<rect width="129.941" height="24" fill="white" transform="translate(-0.000976562 7)"/>
</clipPath>
</defs>
</svg>
