
<svg width="128" height="32" viewBox="0 0 128 32" fill="none" xmlns="http://www.w3.org/2000/svg">
<g clip-path="url(#clip0_278_40790)">
<path fill-rule="evenodd" clip-rule="evenodd" d="M46.6009 19.8353C45.7811 22.736 43.4795 24.5962 40.0113 24.5962C35.5657 24.5962 32.5391 21.5378 32.5391 16.7771C32.5391 11.8271 36.1964 8.26416 41.3355 8.26416C43.3848 8.26416 44.7722 8.70544 45.6235 9.0208L46.0964 13.561L45.7811 13.6242C43.9524 10.755 42.2813 8.89488 40.8942 8.89488C39.0971 8.89488 37.6466 11.1333 37.6466 14.7278C37.6466 19.2678 40.0429 21.0336 42.7857 21.0336C44.2993 21.0336 45.6864 20.4976 46.4434 19.7406L46.6009 19.8353Z" fill="#141412" fill-opacity="0.75"/>
<path fill-rule="evenodd" clip-rule="evenodd" d="M59.2692 16.4618C59.2692 11.9846 58.2603 8.86328 56.0216 8.86328C53.7516 8.86328 52.7743 11.9846 52.7743 16.4618C52.7743 20.9389 53.7832 23.9971 56.0216 23.9971C58.2603 23.9971 59.2692 20.9389 59.2692 16.4618ZM47.5405 16.4618C47.5405 12.0793 51.3869 8.26416 56.0216 8.26416C60.6565 8.26416 64.503 12.0793 64.503 16.4618C64.503 20.8442 60.6565 24.5962 56.0216 24.5962C51.3869 24.5962 47.5405 20.8442 47.5405 16.4618Z" fill="#141412" fill-opacity="0.75"/>
<path fill-rule="evenodd" clip-rule="evenodd" d="M72.6008 24.1237H66.0112V24.0605C66.5156 22.5157 66.7994 21.2542 66.7994 18.5745L66.7678 15.0116C66.7678 12.6788 66.3265 11.3229 65.1914 9.99869V9.93557L71.7178 8.10693V11.2598L71.8441 11.2914C72.6952 9.96717 74.3348 8.26445 77.141 8.26445C79.9154 8.26445 81.8704 9.96717 81.8704 12.6472V18.5429C81.8704 21.223 82.0912 22.5157 82.6264 24.0605V24.1237H76.0374V24.0605C76.5734 22.5157 76.7941 21.1598 76.7941 18.6061V12.9625C76.7941 11.6383 76.1318 10.6291 74.6185 10.6291C73.4521 10.6291 72.4429 11.3229 71.8441 12.1741V18.5745C71.8441 21.1914 72.0963 22.5157 72.6008 24.0605V24.1237Z" fill="#141412" fill-opacity="0.75"/>
<path fill-rule="evenodd" clip-rule="evenodd" d="M85.1679 20.2143V9.46298H83.4023V9.17922L89.8975 5.11182H90.2439V8.76914H101.598V9.46298H90.2439V20.0881C90.2439 21.9799 91.2527 22.5791 92.5143 22.5791C93.6175 22.5791 94.2799 22.0746 94.3111 22.0431L94.4055 22.1377C93.7119 23.3673 92.0095 24.5968 89.5191 24.5968C86.9647 24.5968 85.1679 23.3673 85.1679 20.2143Z" fill="#141412" fill-opacity="0.75"/>
<path fill-rule="evenodd" clip-rule="evenodd" d="M95.8944 24.1233V24.0602C96.3984 22.5153 96.6504 21.2539 96.6504 18.5742V15.0112C96.6504 12.6784 96.8 10.7477 95.6648 9.42313V9.36033L101.601 8.76705V11.9218C102.925 10.5659 104.47 8.07497 107.182 8.26409L106.614 13.561H106.456C105.668 12.489 103.966 11.7008 103.177 11.7008C102.704 11.7008 102.169 12.0793 101.727 12.6153V18.5742C101.727 21.191 101.979 22.5153 102.484 24.0602V24.1233H95.8944Z" fill="#141412" fill-opacity="0.75"/>
<path fill-rule="evenodd" clip-rule="evenodd" d="M115.506 21.538V16.1667C113.298 16.7656 112.069 18.322 112.069 19.804C112.069 21.0336 112.794 21.8534 114.182 21.8534C114.686 21.8534 115.158 21.7271 115.506 21.538ZM115.6 22.1371C114.718 23.4298 113.204 24.5962 111.186 24.5962C109.263 24.5962 107.623 23.197 107.623 20.853C107.623 17.4476 111.942 16.2611 115.506 15.5045V13.8449C115.506 12.0162 114.718 11.1335 112.478 11.1335C111.25 11.1335 109.799 11.3855 108.38 11.9846L108.254 11.7642C109.767 9.93528 112.258 8.26416 115.663 8.26416C119.037 8.26416 120.582 9.93528 120.582 12.3946V20.4976C120.582 21.2542 120.929 21.9165 121.938 21.9165C122.284 21.9165 122.726 21.8218 123.136 21.538L123.199 21.664C122.758 22.7047 121.654 24.565 118.974 24.565C117.05 24.565 115.884 23.5558 115.6 22.1371Z" fill="#141412" fill-opacity="0.75"/>
<path fill-rule="evenodd" clip-rule="evenodd" d="M89.2393 9.32887H101.602V8.57959H89.2393V9.32887Z" fill="#141412" fill-opacity="0.75"/>
<path fill-rule="evenodd" clip-rule="evenodd" d="M16.6485 15.2346H26.6718C26.7854 15.2346 26.8774 15.1425 26.8774 15.029V14.7216C26.8774 14.6278 26.814 14.546 26.7231 14.5224C22.0227 13.3148 18.3344 9.64797 17.0969 4.95345C17.073 4.86318 16.9913 4.80005 16.8981 4.80005H16.6485C16.535 4.80005 16.4429 4.89209 16.4429 5.00566V15.029C16.4429 15.1425 16.535 15.2346 16.6485 15.2346Z" fill="#141412" fill-opacity="0.75"/>
<path fill-rule="evenodd" clip-rule="evenodd" d="M16.6485 26.8647H16.9559C17.0497 26.8647 17.1317 26.8012 17.155 26.7104C18.3627 22.0103 22.0295 18.3216 26.7243 17.0841C26.8146 17.0603 26.8774 16.9785 26.8774 16.8853V16.6357C26.8774 16.5224 26.7854 16.4304 26.6718 16.4304H16.6485C16.535 16.4304 16.4429 16.5224 16.4429 16.6357V26.6591C16.4429 26.7727 16.535 26.8647 16.6485 26.8647Z" fill="#141412" fill-opacity="0.75"/>
<path fill-rule="evenodd" clip-rule="evenodd" d="M14.7794 26.865H15.0287C15.1423 26.865 15.2343 26.7729 15.2343 26.6591V16.636C15.2343 16.5224 15.1423 16.4304 15.0287 16.4304H5.00566C4.89209 16.4304 4.80005 16.5224 4.80005 16.636V16.9431C4.80005 17.0372 4.86347 17.1189 4.95433 17.1425C9.65445 18.3503 13.3431 22.0167 14.5806 26.7115C14.6045 26.8019 14.6859 26.865 14.7794 26.865Z" fill="#141412" fill-opacity="0.75"/>
<path fill-rule="evenodd" clip-rule="evenodd" d="M5.00566 15.2346H15.0287C15.1423 15.2346 15.2343 15.1425 15.2343 15.029V5.00566C15.2343 4.89209 15.1423 4.80005 15.0287 4.80005H14.7216C14.6278 4.80005 14.5458 4.86377 14.5224 4.95462C13.3144 9.65477 9.64797 13.3434 4.95315 14.5809C4.86288 14.6045 4.80005 14.6862 4.80005 14.7797V15.029C4.80005 15.1425 4.89209 15.2346 5.00566 15.2346Z" fill="#141412" fill-opacity="0.75"/>
</g>
<defs>
<clipPath id="clip0_278_40790">
<rect width="128" height="32" fill="white"/>
</clipPath>
</defs>
</svg>
