
<svg width="139" height="32" viewBox="0 0 139 32" fill="none" xmlns="http://www.w3.org/2000/svg">
<g clip-path="url(#clip0_278_40852)">
<g clip-path="url(#clip1_278_40852)">
<path d="M49.8702 14.07V17.265H48.5239C47.2908 17.265 46.7884 17.816 46.7884 19.104V24.254H43.3194V14.137H45.6476L46.1957 15.264C46.9026 14.436 47.7703 14.091 48.9568 14.091H49.8702V14.068V14.07ZM51.0339 19.909V14.115H54.5039V19.748C54.5039 20.805 55.0738 21.448 55.9872 21.448C56.9007 21.448 57.4706 20.805 57.4706 19.748V14.115H60.9396V19.885C60.9396 22.713 58.9539 24.552 55.9872 24.552C53.0196 24.552 51.0339 22.736 51.0339 19.909ZM72.42 18.069V24.23H68.951V18.552C68.951 17.379 68.5171 16.782 67.6503 16.782C66.578 16.782 65.9615 17.54 65.9615 18.828V24.23H62.4914V14.115H64.911L65.3906 15.149C66.1442 14.299 67.2621 13.816 68.5628 13.816C70.891 13.816 72.42 15.494 72.42 18.069ZM79.1307 24.575C75.9129 24.575 73.5846 22.299 73.5846 19.173C73.5846 16.046 75.89 13.816 79.1307 13.816C81.9604 13.816 84.0613 15.609 84.4485 18.299H81.0708C80.7739 17.471 80.0213 16.943 79.1079 16.943C77.8986 16.943 77.0308 17.863 77.0308 19.195C77.0308 20.505 77.8986 21.471 79.1079 21.471C80.0442 21.471 80.7967 20.897 81.0708 20.001H84.4713C84.1069 22.713 81.9614 24.575 79.1307 24.575ZM36.8142 24.575C33.5963 24.575 31.2681 22.299 31.2681 19.173C31.2681 16.046 33.5735 13.816 36.8142 13.816C39.6448 13.816 41.7447 15.609 42.1329 18.299H38.7542C38.4583 17.471 37.7048 16.943 36.7913 16.943C35.582 16.943 34.7143 17.863 34.7143 19.195C34.7143 20.505 35.582 21.471 36.7913 21.471C37.7276 21.471 38.4812 20.897 38.7542 20.001H42.1557C41.7675 22.713 39.622 24.575 36.8142 24.575ZM95.5873 18.161V24.253H92.1183V18.575C92.1183 17.403 91.7073 16.805 90.8177 16.805C89.7672 16.805 89.1278 17.564 89.1278 18.851V24.253H85.6588V10.483H89.1278V14.805C89.8835 14.1872 90.8253 13.8466 91.7986 13.839C94.104 13.816 95.5873 15.518 95.5873 18.161ZM104.147 21.195V24.253H101.773C99.5588 24.253 98.2124 22.896 98.2124 20.643V16.827H96.3637V16.023L100.859 11.195H101.567V14.161H104.147V16.851H101.659V20.069C101.659 20.805 102.093 21.241 102.822 21.241H104.147V21.195ZM126.148 17.885V24.23H122.679V18.322C122.679 17.264 122.291 16.759 121.561 16.759C120.602 16.759 120.123 17.425 120.123 18.689V24.23H116.745V18.322C116.745 17.287 116.357 16.759 115.627 16.759C114.691 16.759 114.166 17.425 114.166 18.689V24.23H110.697V14.115H113.139L113.641 15.195C114.371 14.345 115.422 13.816 116.585 13.816C117.818 13.816 118.845 14.368 119.462 15.31C119.829 14.842 120.297 14.4643 120.831 14.2055C121.365 13.9466 121.95 13.8134 122.542 13.816C124.711 13.816 126.148 15.516 126.148 17.885ZM138.245 19.08C138.245 19.38 138.223 19.701 138.177 20H130.714C130.942 21.15 131.673 21.77 132.768 21.77C133.567 21.77 134.251 21.402 134.594 20.828H138.04C137.333 23.126 135.302 24.575 132.791 24.575C129.664 24.575 127.336 22.275 127.336 19.172C127.336 16.069 129.641 13.793 132.791 13.793C136.009 13.793 138.245 16.115 138.245 19.08ZM130.782 18.092H134.845C134.548 17.08 133.818 16.529 132.768 16.529C131.764 16.529 131.056 17.08 130.782 18.092ZM105.721 14.115H109.19V24.23H105.721V14.115ZM105.744 9.90796H109.145V12.851H105.744V9.90796Z" fill="#141412" fill-opacity="0.75"/>
<path d="M13.055 18.5519C13.2408 18.5519 13.4248 18.515 13.5965 18.4434C13.7681 18.3718 13.9241 18.2669 14.0555 18.1345C14.1868 18.0022 14.2911 17.8451 14.3622 17.6722C14.4333 17.4993 14.4699 17.314 14.4699 17.1269C14.4699 16.9398 14.4333 16.7545 14.3622 16.5816C14.2911 16.4087 14.1868 16.2516 14.0555 16.1193C13.9241 15.987 13.7681 15.882 13.5965 15.8104C13.4248 15.7388 13.2408 15.7019 13.055 15.7019C12.6798 15.7019 12.3199 15.852 12.0546 16.1193C11.7893 16.3865 11.6402 16.749 11.6402 17.1269C11.6402 17.5048 11.7893 17.8673 12.0546 18.1345C12.3199 18.4018 12.6798 18.5519 13.055 18.5519ZM13.055 23.9999C13.4303 23.9999 13.7901 23.8498 14.0555 23.5825C14.3208 23.3153 14.4699 22.9528 14.4699 22.5749C14.4699 22.197 14.3208 21.8345 14.0555 21.5673C13.7901 21.3 13.4303 21.1499 13.055 21.1499C12.6798 21.1499 12.3199 21.3 12.0546 21.5673C11.7893 21.8345 11.6402 22.197 11.6402 22.5749C11.6402 22.9528 11.7893 23.3153 12.0546 23.5825C12.3199 23.8498 12.6798 23.9999 13.055 23.9999ZM13.055 29.4479C13.2408 29.4479 13.4248 29.411 13.5965 29.3394C13.7681 29.2678 13.9241 29.1629 14.0555 29.0305C14.1868 28.8982 14.2911 28.7411 14.3622 28.5682C14.4333 28.3953 14.4699 28.21 14.4699 28.0229C14.4699 27.8358 14.4333 27.6505 14.3622 27.4776C14.2911 27.3047 14.1868 27.1476 14.0555 27.0153C13.9241 26.883 13.7681 26.778 13.5965 26.7064C13.4248 26.6348 13.2408 26.5979 13.055 26.5979C12.6798 26.5979 12.3199 26.748 12.0546 27.0153C11.7893 27.2825 11.6402 27.645 11.6402 28.0229C11.6402 28.4008 11.7893 28.7633 12.0546 29.0305C12.3199 29.2978 12.6798 29.4479 13.055 29.4479ZM7.64495 18.5519C7.83075 18.5519 8.01473 18.515 8.18638 18.4434C8.35803 18.3718 8.514 18.2669 8.64538 18.1345C8.77676 18.0022 8.88097 17.8451 8.95208 17.6722C9.02318 17.4993 9.05977 17.314 9.05977 17.1269C9.05977 16.9398 9.02318 16.7545 8.95208 16.5816C8.88097 16.4087 8.77676 16.2516 8.64538 16.1193C8.514 15.987 8.35803 15.882 8.18638 15.8104C8.01473 15.7388 7.83075 15.7019 7.64495 15.7019C7.26972 15.7019 6.90985 15.852 6.64452 16.1193C6.37919 16.3865 6.23013 16.749 6.23013 17.1269C6.23013 17.5048 6.37919 17.8673 6.64452 18.1345C6.90985 18.4018 7.26972 18.5519 7.64495 18.5519ZM2.23587 18.5519C2.42166 18.5519 2.60564 18.515 2.77729 18.4434C2.94895 18.3718 3.10492 18.2669 3.2363 18.1345C3.36767 18.0022 3.47189 17.8451 3.54299 17.6722C3.61409 17.4993 3.65069 17.314 3.65069 17.1269C3.65069 16.9398 3.61409 16.7545 3.54299 16.5816C3.47189 16.4087 3.36767 16.2516 3.2363 16.1193C3.10492 15.987 2.94895 15.882 2.77729 15.8104C2.60564 15.7388 2.42166 15.7019 2.23587 15.7019C1.86063 15.7019 1.50077 15.852 1.23544 16.1193C0.970106 16.3865 0.821045 16.749 0.821045 17.1269C0.821045 17.5048 0.970106 17.8673 1.23544 18.1345C1.50077 18.4018 1.86063 18.5519 2.23587 18.5519Z" fill="#141412" fill-opacity="0.3"/>
<path d="M18.4861 13.426C18.9521 13.426 19.3991 13.2395 19.7287 12.9076C20.0583 12.5756 20.2434 12.1254 20.2434 11.656C20.2434 11.1866 20.0583 10.7363 19.7287 10.4044C19.3991 10.0725 18.9521 9.88599 18.4861 9.88599C18.02 9.88599 17.573 10.0725 17.2434 10.4044C16.9139 10.7363 16.7287 11.1866 16.7287 11.656C16.7287 12.1254 16.9139 12.5756 17.2434 12.9076C17.573 13.2395 18.02 13.426 18.4861 13.426ZM18.4861 18.897C18.9521 18.897 19.3991 18.7105 19.7287 18.3786C20.0583 18.0466 20.2434 17.5964 20.2434 17.127C20.2434 16.6576 20.0583 16.2073 19.7287 15.8754C19.3991 15.5435 18.9521 15.357 18.4861 15.357C18.02 15.357 17.573 15.5435 17.2434 15.8754C16.9139 16.2073 16.7287 16.6576 16.7287 17.127C16.7287 17.5964 16.9139 18.0466 17.2434 18.3786C17.573 18.7105 18.02 18.897 18.4861 18.897ZM18.4861 24.345C18.9521 24.345 19.3991 24.1585 19.7287 23.8266C20.0583 23.4946 20.2434 23.0444 20.2434 22.575C20.2434 22.1056 20.0583 21.6553 19.7287 21.3234C19.3991 20.9915 18.9521 20.805 18.4861 20.805C18.02 20.805 17.573 20.9915 17.2434 21.3234C16.9139 21.6553 16.7287 22.1056 16.7287 22.575C16.7287 23.0444 16.9139 23.4946 17.2434 23.8266C17.573 24.1585 18.02 24.345 18.4861 24.345ZM13.0551 13.426C13.5212 13.426 13.9682 13.2395 14.2978 12.9076C14.6273 12.5756 14.8125 12.1254 14.8125 11.656C14.8125 11.1866 14.6273 10.7363 14.2978 10.4044C13.9682 10.0725 13.5212 9.88599 13.0551 9.88599C12.5891 9.88599 12.1421 10.0725 11.8125 10.4044C11.4829 10.7363 11.2978 11.1866 11.2978 11.656C11.2978 12.1254 11.4829 12.5756 11.8125 12.9076C12.1421 13.2395 12.5891 13.426 13.0551 13.426ZM7.64505 13.426C8.11113 13.426 8.55812 13.2395 8.88769 12.9076C9.21726 12.5756 9.40241 12.1254 9.40241 11.656C9.40241 11.1866 9.21726 10.7363 8.88769 10.4044C8.55812 10.0725 8.11113 9.88599 7.64505 9.88599C7.17897 9.88599 6.73198 10.0725 6.40241 10.4044C6.07284 10.7363 5.8877 11.1866 5.8877 11.656C5.8877 12.1254 6.07284 12.5756 6.40241 12.9076C6.73198 13.2395 7.17897 13.426 7.64505 13.426Z" fill="#141412" fill-opacity="0.4"/>
<path d="M23.896 8.414C24.4772 8.414 25.0345 8.18148 25.4455 7.76758C25.8564 7.35369 26.0872 6.79233 26.0872 6.207C26.0872 5.62167 25.8564 5.06031 25.4455 4.64642C25.0345 4.23252 24.4772 4 23.896 4C23.3149 4 22.7575 4.23252 22.3466 4.64642C21.9356 5.06031 21.7048 5.62167 21.7048 6.207C21.7048 6.79233 21.9356 7.35369 22.3466 7.76758C22.7575 8.18148 23.3149 8.414 23.896 8.414ZM23.896 13.862C24.1876 13.8683 24.4776 13.8158 24.7488 13.7077C25.02 13.5996 25.2671 13.4381 25.4755 13.2326C25.6839 13.0271 25.8495 12.7817 25.9626 12.5109C26.0757 12.2401 26.1339 11.9493 26.1339 11.6555C26.1339 11.3617 26.0757 11.0709 25.9626 10.8001C25.8495 10.5293 25.6839 10.2839 25.4755 10.0784C25.2671 9.87288 25.02 9.71135 24.7488 9.60327C24.4776 9.4952 24.1876 9.44275 23.896 9.449C23.3231 9.46129 22.7777 9.69915 22.3768 10.1116C21.9759 10.5241 21.7514 11.0783 21.7514 11.6555C21.7514 12.2327 21.9759 12.7869 22.3768 13.1994C22.7777 13.6118 23.3231 13.8497 23.896 13.862ZM23.896 19.334C24.4772 19.334 25.0345 19.1015 25.4455 18.6876C25.8564 18.2737 26.0872 17.7123 26.0872 17.127C26.0872 16.5417 25.8564 15.9803 25.4455 15.5664C25.0345 15.1525 24.4772 14.92 23.896 14.92C23.3149 14.92 22.7575 15.1525 22.3466 15.5664C21.9356 15.9803 21.7048 16.5417 21.7048 17.127C21.7048 17.7123 21.9356 18.2737 22.3466 18.6876C22.7575 19.1015 23.3149 19.334 23.896 19.334ZM18.4859 8.414C19.0671 8.414 19.6244 8.18148 20.0354 7.76758C20.4463 7.35369 20.6772 6.79233 20.6772 6.207C20.6772 5.62167 20.4463 5.06031 20.0354 4.64642C19.6244 4.23252 19.0671 4 18.4859 4C17.9048 4 17.3474 4.23252 16.9365 4.64642C16.5256 5.06031 16.2947 5.62167 16.2947 6.207C16.2947 6.79233 16.5256 7.35369 16.9365 7.76758C17.3474 8.18148 17.9048 8.414 18.4859 8.414ZM13.055 8.414C13.6362 8.414 14.1935 8.18148 14.6044 7.76758C15.0154 7.35369 15.2462 6.79233 15.2462 6.207C15.2462 5.62167 15.0154 5.06031 14.6044 4.64642C14.1935 4.23252 13.6362 4 13.055 4C12.4739 4 11.9165 4.23252 11.5056 4.64642C11.0946 5.06031 10.8638 5.62167 10.8638 6.207C10.8638 6.79233 11.0946 7.35369 11.5056 7.76758C11.9165 8.18148 12.4739 8.414 13.055 8.414Z" fill="#141412" fill-opacity="0.5"/>
</g>
</g>
<defs>
<clipPath id="clip0_278_40852">
<rect width="139" height="32" fill="white" transform="translate(-0.000976562)"/>
</clipPath>
<clipPath id="clip1_278_40852">
<rect width="139" height="26" fill="white" transform="translate(-0.000976562 4)"/>
</clipPath>
</defs>
</svg>
