<svg fill="none" viewBox="0 0 16 16" data-astro-cid-wcny5lte="" astro-icon="events"><path fill="currentColor" d="m8.815 8.015-2.75 2.767a.574.574 0 0 1-.417.183.574.574 0 0 1-.416-.183.583.583 0 0 1 0-.85l2.75-2.75H5.815a.582.582 0 0 1-.427-.172.575.575 0 0 1-.173-.425c0-.169.058-.312.173-.428a.576.576 0 0 1 .427-.175h3.6a.58.58 0 0 1 .428.172.58.58 0 0 1 .172.428v3.6c0 .17-.057.312-.171.427a.575.575 0 0 1-.425.173.587.587 0 0 1-.429-.173.576.576 0 0 1-.175-.427V8.015Zm-.217-4.417a.582.582 0 0 1-.427-.171.575.575 0 0 1-.173-.425c0-.17.058-.312.173-.429a.576.576 0 0 1 .427-.175h3.8c.33 0 .613.118.848.353s.352.517.352.847v3.8c0 .17-.057.313-.171.428a.576.576 0 0 1-.425.172.587.587 0 0 1-.429-.172.577.577 0 0 1-.175-.428v-3.8h-3.8Zm-5 10c-.33 0-.612-.117-.847-.352a1.156 1.156 0 0 1-.353-.848v-9.4c0-.17.058-.312.172-.427a.575.575 0 0 1 .425-.173c.169 0 .312.058.428.173a.576.576 0 0 1 .175.427v9.4h9.4c.17 0 .313.058.428.172a.576.576 0 0 1 .172.425.587.587 0 0 1-.172.428.576.576 0 0 1-.428.175h-9.4Z"></path></svg>