
<svg width="119" height="32" viewBox="0 0 119 32" fill="none" xmlns="http://www.w3.org/2000/svg">
<g clip-path="url(#clip0_278_40814)">
<g clip-path="url(#clip1_278_40814)">
<path fill-rule="evenodd" clip-rule="evenodd" d="M23.6285 30.5846H25.2734C25.6545 30.5846 25.9755 30.2624 25.9956 29.8798V11.8961C25.9956 10.1239 24.5713 8.69408 22.806 8.69408H20.6998C20.3186 8.69408 19.9977 8.37185 19.9977 7.98922V6.35802C19.9977 4.58584 18.5734 3.15601 16.8082 3.15601H3.18755C1.42229 3.15601 -0.00195312 4.58584 -0.00195312 6.35802V24.4223C-0.00195312 26.1743 1.42229 27.6041 3.18755 27.6242H18.9746C19.115 27.6242 19.2555 27.6645 19.3758 27.7451L23.2273 30.4638C23.3477 30.5443 23.4881 30.5846 23.6285 30.5846ZM19.797 25.0666H3.22768C2.82648 25.0666 2.52558 24.7646 2.52558 24.3618V6.39829C2.52558 6.01567 2.84654 5.69345 3.22768 5.69345H16.7681C17.1492 5.69345 17.4702 6.01567 17.4702 6.39829V7.98922C17.4702 8.37185 17.1492 8.69408 16.7681 8.69408H6.67797C6.29683 8.69408 5.97587 9.0163 5.97587 9.39893V21.3813C5.97587 21.764 6.29683 22.0862 6.67797 22.0862H19.2755C19.6567 22.0862 19.9776 21.764 19.9776 21.3813V11.9364C19.9776 11.5538 20.2986 11.2315 20.6797 11.2315H22.7459C23.127 11.2315 23.448 11.5538 23.448 11.9364V26.6374C23.448 27 23.0468 27.2013 22.7659 27L20.1983 25.1875C20.0779 25.1069 19.9375 25.0666 19.797 25.0666ZM17.1091 19.5286H8.8444C8.66393 19.5286 8.5034 19.3876 8.5034 19.1863V11.5739C8.5034 11.3926 8.64383 11.2315 8.8444 11.2315H17.1091C17.2896 11.2315 17.4501 11.3725 17.4501 11.5739V19.1863C17.4501 19.3675 17.3096 19.5286 17.1091 19.5286ZM89.8903 6.98522C90.944 6.98522 91.7983 6.12803 91.7983 5.07062C91.7983 4.01321 90.944 3.15601 89.8903 3.15601C88.8375 3.15601 87.984 4.01321 87.984 5.07062C87.984 6.12803 88.8375 6.98522 89.8903 6.98522ZM68.1345 9.78433V8.72066H65.0621V21.9811H68.1345V12.9222L71.7194 11.4331V8.33064H71.684L68.1345 9.78433ZM56.23 8.70871C54.2346 8.70871 52.6098 9.36466 51.3737 10.6942C50.8088 11.3148 50.3674 12.0239 50.0495 12.857C49.7494 13.6725 49.5902 14.5412 49.5902 15.4453C49.5902 17.3068 50.1201 18.8491 51.1974 20.0368C52.3804 21.3487 54.0051 21.9869 56.0713 21.9869C58.0842 21.9869 59.6911 21.331 60.9097 20.0014C62.0573 18.7427 62.64 17.165 62.64 15.2503C62.64 13.3357 62.0752 11.7934 60.9625 10.5878C59.7792 9.32919 58.2077 8.70871 56.23 8.70871ZM58.6316 18.14C58.0489 18.8668 57.2367 19.2391 56.2122 19.2391C55.1174 19.2391 54.2171 18.8668 53.5458 18.1223C53.2279 17.7854 52.981 17.36 52.8043 16.8813C52.6277 16.4027 52.5392 15.9062 52.5392 15.3744C52.5392 14.3108 52.8218 13.4243 53.4045 12.6798C54.0404 11.882 54.9054 11.4743 56.0181 11.4743C57.1129 11.4743 57.9782 11.8465 58.5963 12.6088C59.179 13.318 59.4791 14.2398 59.4791 15.3921C59.4969 16.509 59.2143 17.4309 58.6316 18.14ZM88.3347 8.72282H91.3893V22.001H88.3347V8.72282ZM41.7169 8.70871C39.9687 8.70871 38.5384 9.22283 37.4258 10.251C36.3839 11.2261 35.8542 12.4493 35.8542 13.9207C35.8542 15.2326 36.3133 16.314 37.2317 17.1826C36.4369 17.8209 36.0484 18.5832 36.0484 19.4873C36.0484 20.0368 36.119 20.5155 36.2427 20.9233C36.3663 21.3487 36.6135 21.7032 37.002 22.0223C35.6246 22.7846 34.9536 24.0256 35.0066 25.7275C35.0419 27.1989 35.6776 28.3689 36.9137 29.2554C38.1498 30.1417 39.792 30.585 41.805 30.585C43.8183 30.585 45.3192 30.1949 46.3433 29.4149C47.3675 28.6349 47.8796 27.518 47.8796 26.0466C47.8796 24.5929 47.4735 23.4584 46.6613 22.6606C46.2199 22.2351 45.6546 21.8983 44.9659 21.5969C44.2597 21.3132 43.3063 21.0651 42.0701 20.8701C40.834 20.6751 39.9508 20.4624 39.4213 20.1964C39.174 20.09 39.0152 19.966 38.9445 19.8418C38.8739 19.7178 38.8385 19.5405 38.8385 19.31C38.8385 19.0795 38.9973 18.7604 39.2974 18.3527C39.9861 18.5832 40.7455 18.7072 41.5581 18.7072C43.2178 18.7072 44.5777 18.2108 45.6546 17.2004C46.1314 16.7394 46.5025 16.1899 46.7673 15.5694C47.0321 14.9489 47.1559 14.2576 47.1559 13.4953C47.1559 12.733 46.9793 12.0061 46.626 11.3324C46.626 11.3324 46.626 11.3148 46.6081 11.3148H47.8974V8.70871H41.7169ZM39.5801 23.0506L40.216 23.157C41.9995 23.4229 43.2709 23.7774 43.995 24.256C44.6483 24.6638 44.9659 25.2134 44.9659 25.887C44.9659 27.3052 43.9596 27.9967 41.9463 27.9967C40.7634 27.9967 39.8099 27.7485 39.068 27.2699C38.7326 27.0571 38.4678 26.7912 38.2911 26.4898C38.0966 26.1884 38.0085 25.8516 38.0085 25.4439C38.0085 25.0361 38.132 24.6106 38.3793 24.1675C38.6444 23.7065 39.0505 23.352 39.5801 23.0506ZM43.4297 15.4453C42.9351 15.8885 42.3524 16.1189 41.6994 16.1189C40.8162 16.1189 40.11 15.8707 39.5626 15.3744C39.3153 15.1616 39.1386 14.8957 38.9973 14.6298C38.8739 14.3462 38.8032 14.0626 38.8032 13.7612C38.8032 13.4598 38.856 13.1584 38.9799 12.857C39.3681 11.8465 40.2335 11.3501 41.5934 11.3501C42.4056 11.3501 43.0589 11.5629 43.5182 11.9884C43.9771 12.4138 44.2244 12.9811 44.2244 13.6725C44.2066 14.3462 43.9418 14.9489 43.4297 15.4453ZM104.88 11.5983C105.11 12.2011 105.233 12.9102 105.233 13.6725V21.9514H102.232V21.331C101.331 21.7387 100.5 21.9514 99.7413 21.9514C98.7878 21.9514 97.9934 21.8628 97.3219 21.6856C96.6513 21.5082 96.0862 21.2423 95.6268 20.9055C94.6905 20.1964 94.2137 19.1859 94.2137 17.8741C94.2137 16.704 94.7796 15.7112 95.9452 14.9312C97.1982 14.0803 98.9115 13.6548 101.066 13.6548L101.56 13.6725C101.611 13.6725 101.662 13.6766 101.715 13.6809C101.772 13.6855 101.831 13.6902 101.895 13.6902C101.955 13.6988 102.01 13.7032 102.063 13.7074C102.121 13.712 102.176 13.7165 102.232 13.7257C102.161 12.4138 101.596 11.6338 100.536 11.4211C100.201 11.3501 99.8123 11.3148 99.423 11.3148C99.0171 11.3148 98.6294 11.3501 98.2582 11.4211C97.8696 11.492 97.4985 11.5983 97.1454 11.7047C96.3684 11.9529 95.786 12.2543 95.4502 12.5734L95.4148 12.5556L95.0444 9.84331C96.474 9.081 98.0635 8.70871 99.7768 8.70871C102.443 8.70871 104.138 9.66601 104.88 11.5983ZM102.232 18.8136V17.1118V15.9594C102.002 15.9239 101.772 15.9062 101.543 15.9062H101.048C99.2472 15.9062 98.099 16.314 97.6049 17.1118C97.4638 17.3422 97.3929 17.5904 97.3929 17.8563C97.3929 18.1223 97.4457 18.3527 97.5339 18.5477C97.6395 18.7427 97.7987 18.9199 98.0107 19.0441C98.4347 19.2923 99.0707 19.4164 99.9005 19.4164C100.73 19.4164 101.507 19.2036 102.232 18.8136ZM116.519 14.5767C117.031 14.8249 117.455 15.1262 117.773 15.4808C118.356 16.1189 118.656 16.9699 118.656 18.0691C118.656 19.2213 118.197 20.161 117.278 20.8878C116.325 21.6501 114.983 22.0223 113.253 22.0223C111.168 22.0223 109.544 21.6678 108.396 20.9764V17.7145C108.396 17.6967 108.467 17.7677 108.591 17.9095C108.714 18.0513 108.962 18.2108 109.297 18.4236C109.633 18.6363 110.038 18.8136 110.48 18.9731C111.451 19.31 112.458 19.4696 113.518 19.4696C114.93 19.4696 115.636 18.9909 115.636 18.0513C115.636 17.7499 115.495 17.5195 115.23 17.3777C114.753 17.1295 114.047 16.9344 113.111 16.8104C112.176 16.6686 111.416 16.4913 110.815 16.2431C110.215 15.9949 109.721 15.6935 109.35 15.3566C108.661 14.7007 108.308 13.8498 108.308 12.8038C108.308 11.5275 108.803 10.517 109.774 9.79011C110.745 9.06326 112.087 8.70871 113.8 8.70871C115.495 8.70871 116.943 9.18737 118.144 10.1624C118.091 10.3751 118.038 10.5878 117.967 10.7829C117.773 11.3324 117.632 11.7225 117.543 11.9529L117.261 12.6798C117.243 12.7507 117.226 12.7861 117.226 12.7861C117.208 12.7861 117.137 12.6975 117.031 12.5202C116.519 11.9175 115.707 11.5275 114.63 11.3324C114.294 11.2616 113.959 11.2261 113.605 11.2261C112.122 11.2261 111.38 11.6693 111.38 12.5734C111.38 12.8747 111.522 13.1229 111.84 13.2825C112.422 13.6017 113.217 13.8321 114.224 13.9739C115.23 14.1334 115.99 14.3285 116.519 14.5767ZM79.3458 8.70871C77.5976 8.70871 76.167 9.22283 75.0547 10.251C74.0127 11.2261 73.4832 12.4493 73.4832 13.9207C73.4832 15.2326 73.9421 16.314 74.8606 17.1826C74.0659 17.8209 73.6773 18.5832 73.6773 19.4873C73.6773 20.0368 73.748 20.5155 73.8714 20.9233C73.9953 21.3487 74.2426 21.7032 74.6308 22.0223C73.2534 22.7846 72.5825 24.0256 72.6353 25.7275C72.6706 27.1989 73.3065 28.3689 74.5426 29.2554C75.7788 30.1417 77.421 30.585 79.4341 30.585C81.4469 30.585 82.9482 30.1949 83.9726 29.4149C84.9964 28.6349 85.5086 27.518 85.5086 26.0466C85.5086 24.5929 85.1028 23.4584 84.2902 22.6606C83.8489 22.2351 83.2839 21.8983 82.5951 21.5969C81.889 21.3132 80.9354 21.0651 79.6989 20.8701C78.463 20.6751 77.5798 20.4624 77.0502 20.1964C76.8029 20.09 76.6441 19.966 76.5734 19.8418C76.5028 19.7178 76.4675 19.5405 76.4675 19.31C76.4675 19.0795 76.6263 18.7604 76.9264 18.3527C77.6151 18.5832 78.3745 18.7072 79.1866 18.7072C80.8463 18.7072 82.2066 18.2108 83.2839 17.2004C83.7607 16.7394 84.1311 16.1899 84.3959 15.5694C84.6606 14.9489 84.7844 14.2576 84.7844 13.4953C84.7844 12.733 84.6078 12.0061 84.2548 11.3324C84.2548 11.3324 84.2548 11.3148 84.2367 11.3148H85.526V8.70871H79.3458ZM77.209 23.0506L77.8449 23.157C79.6288 23.4229 80.8999 23.7774 81.6234 24.256C82.2767 24.6638 82.5951 25.2134 82.5951 25.887C82.5951 27.3052 81.5887 27.9967 79.5752 27.9967C78.3923 27.9967 77.4384 27.7485 76.6969 27.2699C76.3615 27.0571 76.0967 26.7912 75.9201 26.4898C75.7256 26.1884 75.6375 25.8516 75.6375 25.4439C75.6375 25.0361 75.7609 24.6106 76.0082 24.1675C76.273 23.7065 76.6795 23.352 77.209 23.0506ZM81.0583 15.4453C80.5642 15.8885 79.981 16.1189 79.3277 16.1189C78.4451 16.1189 77.7389 15.8707 77.1915 15.3744C76.9442 15.1616 76.7676 14.8957 76.6263 14.6298C76.5028 14.3462 76.4322 14.0626 76.4322 13.7612C76.4322 13.4598 76.4849 13.1584 76.6088 12.857C76.997 11.8465 77.8624 11.3501 79.2221 11.3501C80.0346 11.3501 80.6879 11.5629 81.1466 11.9884C81.606 12.4138 81.8535 12.9811 81.8535 13.6725C81.8354 14.3462 81.5706 14.9489 81.0583 15.4453Z" fill="#141412" fill-opacity="0.75"/>
</g>
</g>
<defs>
<clipPath id="clip0_278_40814">
<rect width="119" height="32" fill="white" transform="translate(-0.00195312)"/>
</clipPath>
<clipPath id="clip1_278_40814">
<rect width="119" height="28" fill="white" transform="translate(-0.00195312 3)"/>
</clipPath>
</defs>
</svg>
