
<svg width="179" height="32" viewBox="0 0 179 32" fill="none" xmlns="http://www.w3.org/2000/svg">
<g clip-path="url(#clip0_278_40817)">
<g clip-path="url(#clip1_278_40817)">
<path fill-rule="evenodd" clip-rule="evenodd" d="M35.9535 16.8749H41.2757C40.9213 15.5023 39.9503 14.9457 38.7677 14.9457C37.4674 14.9457 36.4254 15.6652 35.9535 16.8749ZM44.3983 19.2223H35.7647C36.1191 20.9903 37.585 21.6417 38.8621 21.6417C40.4706 21.6417 41.1582 20.6648 41.1582 20.6648H44.1381C43.2387 22.9895 41.087 24.2675 38.7678 24.2675C35.574 24.2675 32.783 21.8727 32.783 18.2473C32.783 14.6429 35.5508 12.4109 38.6732 12.4109C41.7015 12.4109 44.7777 14.4799 44.3983 19.2223Z" fill="#141412" fill-opacity="0.75"/>
<path fill-rule="evenodd" clip-rule="evenodd" d="M73.7284 18.3399C73.7284 16.5263 72.6401 15.1085 70.8428 15.1085C69.0439 15.1085 67.8378 16.5263 67.8378 18.3399C67.8378 20.1535 69.0439 21.5714 70.8428 21.5714C72.6401 21.5714 73.7284 20.1535 73.7284 18.3399ZM64.7385 18.3625C64.7385 14.6429 67.6722 12.4109 70.8427 12.4109C74.0365 12.4109 76.8275 14.6655 76.8275 18.3153C76.8275 22.0126 73.9401 24.2672 70.7466 24.2672C67.5296 24.2672 64.7385 22.0126 64.7385 18.3625Z" fill="#141412" fill-opacity="0.75"/>
<path fill-rule="evenodd" clip-rule="evenodd" d="M89.4905 17.8518V24.1519H86.3428V18.5484C86.3428 18.1528 86.6282 15.2239 84.3567 15.1087C83.2434 15.0386 81.2572 15.6423 81.2572 18.6885V24.1519H78.135V12.5264H81.0012L81.0106 14.1403C81.0106 14.1403 82.3029 12.4109 84.7133 12.4109C87.7647 12.4109 89.4905 14.6429 89.4905 17.8518Z" fill="#141412" fill-opacity="0.75"/>
<path fill-rule="evenodd" clip-rule="evenodd" d="M100.995 14.8757C100.002 14.8757 99.576 15.3641 99.576 15.8526C99.576 16.6421 100.641 16.8749 101.35 17.015C103.457 17.4559 105.586 18.0846 105.586 20.5473C105.586 22.9423 103.575 24.2675 101.138 24.2675C98.4184 24.2675 96.3126 22.6412 96.1699 20.1764H99.0787C99.1504 20.873 99.6241 21.7798 101.067 21.7798C102.273 21.7798 102.558 21.1533 102.558 20.6648C102.558 19.8035 101.729 19.5478 100.924 19.3622C99.5295 19.0594 96.5245 18.5029 96.5245 15.8526C96.5245 13.5733 98.7494 12.4109 101.043 12.4109C103.692 12.4109 105.443 13.9917 105.586 15.9452H102.675C102.581 15.5497 102.204 14.8757 100.995 14.8757Z" fill="#141412" fill-opacity="0.75"/>
<path fill-rule="evenodd" clip-rule="evenodd" d="M115.15 18.3399C115.15 16.409 114.084 15.2712 112.548 15.2712C111.105 15.2712 109.66 16.2935 109.66 18.3399C109.66 20.3846 111.105 21.4087 112.548 21.4087C114.084 21.4087 115.15 20.2691 115.15 18.3399ZM118.107 12.5264V28.8013H115.15V23.0121C114.393 23.8489 113.328 24.2672 112.097 24.2672C109.094 24.2672 106.586 21.8499 106.586 18.3399C106.586 14.8282 109.094 12.4109 112.097 12.4109C114.457 12.4109 115.341 13.9679 115.341 13.9679L115.336 12.5264H118.107Z" fill="#141412" fill-opacity="0.75"/>
<path fill-rule="evenodd" clip-rule="evenodd" d="M135.011 16.8749H140.334C139.979 15.5023 139.008 14.9457 137.826 14.9457C136.526 14.9457 135.483 15.6652 135.011 16.8749ZM143.456 19.2223H134.821C135.178 20.9903 136.643 21.6417 137.92 21.6417C139.529 21.6417 140.217 20.6648 140.217 20.6648H143.196C142.297 22.9895 140.145 24.2675 137.826 24.2675C134.632 24.2675 131.841 21.8727 131.841 18.2473C131.841 14.6429 134.609 12.4109 137.732 12.4109C140.76 12.4109 143.836 14.4799 143.456 19.2223Z" fill="#141412" fill-opacity="0.75"/>
<path fill-rule="evenodd" clip-rule="evenodd" d="M147.58 16.8749H152.902C152.548 15.5023 151.577 14.9457 150.394 14.9457C149.094 14.9457 148.052 15.6652 147.58 16.8749ZM156.025 19.2223H147.392C147.746 20.9903 149.211 21.6417 150.489 21.6417C152.097 21.6417 152.785 20.6648 152.785 20.6648H155.765C154.865 22.9895 152.714 24.2675 150.394 24.2675C147.201 24.2675 144.41 21.8727 144.41 18.2473C144.41 14.6429 147.177 12.4109 150.3 12.4109C153.328 12.4109 156.404 14.4799 156.025 19.2223Z" fill="#141412" fill-opacity="0.75"/>
<path fill-rule="evenodd" clip-rule="evenodd" d="M166.558 21.5488V24.1517H156.505V22.6166L162.207 15.1313H156.742V12.5264H166.323V14.0615L160.621 21.5488H166.558Z" fill="#141412" fill-opacity="0.75"/>
<path fill-rule="evenodd" clip-rule="evenodd" d="M178.866 12.5264V22.7567V22.9895C178.866 26.1283 177.232 28.9188 173.188 28.9188C169.403 28.9188 167.345 26.4766 167.345 24.6404H170.302C170.302 24.6404 170.751 26.1983 173.093 26.1983C175.081 26.1983 175.909 25.0813 175.909 23.4551V22.9667C175.388 23.548 174.395 24.2675 172.621 24.2675C169.522 24.2675 167.582 22.0601 167.582 18.8284L167.557 12.5264H170.633V18.13C170.633 19.7105 171.202 21.5717 173.164 21.5717C174.182 21.5717 175.861 21.0832 175.861 17.9898V12.5264H178.866Z" fill="#141412" fill-opacity="0.75"/>
<path fill-rule="evenodd" clip-rule="evenodd" d="M30.5316 20.662C30.5316 21.3869 30.8129 21.686 31.335 21.686C31.7028 21.686 31.9417 21.6426 32.2902 21.5365L32.485 23.9256C31.8337 24.1376 31.204 24.2663 30.4006 24.2663C28.5573 24.2663 27.4285 23.67 27.4285 21.088V7.87695H30.5316V20.662Z" fill="#141412" fill-opacity="0.75"/>
<path fill-rule="evenodd" clip-rule="evenodd" d="M63.4032 17.8517V24.1518H60.2556V18.5483C60.2556 16.9448 60.4215 14.9213 58.2446 15.1086C57.6784 15.1541 56.1161 15.4094 56.1161 18.6884V24.1518H52.9937V18.5483C52.9937 16.9448 53.1593 14.9213 50.9827 15.1086C50.4144 15.1541 48.8542 15.4094 48.8542 18.6884V24.1518H45.7317V12.5263H48.5982L48.6008 14.1402C48.6008 14.1402 49.6963 12.4108 51.7396 12.4108C54.2018 12.4108 55.1682 14.2934 55.1682 14.2934C55.1682 14.2934 56.2283 12.3882 58.9323 12.3882C62.0068 12.3882 63.4032 14.6202 63.4032 17.8517Z" fill="#141412" fill-opacity="0.75"/>
<path fill-rule="evenodd" clip-rule="evenodd" d="M119.434 18.8266V12.5264H122.582V18.13C122.582 18.5255 122.296 21.4543 124.568 21.5696C125.681 21.6397 127.667 21.0359 127.667 17.9898V12.5264H130.79V24.1519H127.927L127.914 22.5381C127.914 22.5381 126.621 24.2675 124.211 24.2675C121.16 24.2675 119.434 22.0355 119.434 18.8266Z" fill="#141412" fill-opacity="0.75"/>
<path fill-rule="evenodd" clip-rule="evenodd" d="M5.84836 19.7304L12.1904 22.707C12.9765 23.0761 13.5313 23.6956 13.831 24.4061C14.5889 26.2055 13.553 28.0458 11.927 28.7077C10.3006 29.3692 8.56737 28.9435 7.77925 27.0723L5.01918 20.5027C4.8053 19.9935 5.34258 19.4931 5.84836 19.7304Z" fill="#141412" fill-opacity="0.5"/>
<path fill-rule="evenodd" clip-rule="evenodd" d="M6.22843 17.8037L12.7751 15.2914C14.9509 14.4565 17.3276 16.0363 17.2956 18.3317C17.2951 18.3617 17.2945 18.3916 17.2938 18.4219C17.2468 20.6571 14.9361 22.1595 12.8081 21.3687L6.23463 18.9263C5.71026 18.7315 5.70638 18.004 6.22843 17.8037Z" fill="#141412" fill-opacity="0.5"/>
<path fill-rule="evenodd" clip-rule="evenodd" d="M5.86193 16.9335L12.2976 14.1575C14.4361 13.2349 14.9789 10.466 13.3039 8.86608C13.282 8.84501 13.26 8.8242 13.2378 8.80338C11.5957 7.25606 8.88113 7.80086 7.94626 9.83891L5.05832 16.1356C4.8279 16.6377 5.34867 17.1548 5.86193 16.9335Z" fill="#141412" fill-opacity="0.5"/>
<path fill-rule="evenodd" clip-rule="evenodd" d="M4.20581 15.8365L6.54561 9.32356C6.8357 8.516 6.78196 7.69246 6.48206 6.98189C5.72262 5.18324 3.66593 4.60265 2.04011 5.26549C0.414546 5.92859 -0.504015 7.43453 0.285648 9.30503L3.0638 15.8675C3.27924 16.376 4.01931 16.3559 4.20581 15.8365Z" fill="#141412" fill-opacity="0.5"/>
</g>
</g>
<defs>
<clipPath id="clip0_278_40817">
<rect width="179" height="32" fill="white" transform="translate(-0.00195312)"/>
</clipPath>
<clipPath id="clip1_278_40817">
<rect width="179" height="24" fill="white" transform="translate(-0.00195312 5)"/>
</clipPath>
</defs>
</svg>
