
<svg width="69" height="32" viewBox="0 0 69 32" fill="none" xmlns="http://www.w3.org/2000/svg">
<path d="M55.0557 21.8558C52.0941 21.8558 50.0063 19.5743 50.0063 16.5739C50.0063 13.5734 52.0941 11.2919 55.0557 11.2919C58.0173 11.2919 60.0468 13.5734 60.0468 16.5739C60.0468 19.5743 57.9882 21.8558 55.0557 21.8558ZM54.5799 25C56.9686 25 58.9981 24.0797 60.2798 22.1529C60.5226 24.0222 61.8917 24.7028 63.6202 24.7028H64.999V21.7407H64.4067C63.426 21.7407 63.1832 21.271 63.1832 20.1686V8.45447H60.0177V10.8606C58.9398 9.17342 56.9104 8.1573 54.5799 8.1573C50.4239 8.1573 46.6077 11.5987 46.6077 16.5739C46.6077 21.549 50.4336 24.9904 54.5799 24.9904V25ZM38.2763 20.9355C38.2763 23.6004 39.9465 24.7028 41.9468 24.7028H45.8018V21.7407H42.9955C41.8303 21.7407 41.5875 21.2998 41.5875 20.1686V11.4166H45.8018V8.45447H41.5875V3H38.2763V20.9355ZM23.1963 24.7028H26.5075V17.7338H27.6144L33.2561 24.7028H37.4412L30.2459 15.8645L35.7711 8.45447H32.0423L27.527 14.7142H26.5075V3H23.1963V24.7028ZM12.447 8.1573C7.81517 8.1573 3.99902 11.5987 3.99902 16.5739C3.99902 21.549 7.82488 24.9904 12.447 24.9904C17.0691 24.9904 20.8949 21.549 20.8949 16.5739C20.8949 11.5987 17.0691 8.1573 12.447 8.1573ZM12.447 21.8558C9.48533 21.8558 7.39762 19.5743 7.39762 16.5739C7.39762 13.5734 9.48533 11.2919 12.447 11.2919C15.4086 11.2919 17.4963 13.5734 17.4963 16.5739C17.4963 19.5743 15.4086 21.8558 12.447 21.8558Z" fill="#141412" fill-opacity="0.75"/>
</svg>
