<svg fill="none" viewBox="0 0 24 24" data-astro-cid-wcny5lte="" astro-icon="cached"><path fill="#currentColor" d="M12.047 20c-2.233 0-4.133-.775-5.7-2.325-1.567-1.55-2.35-3.442-2.35-5.675v-.175l-.9.9a.948.948 0 0 1-.7.275.948.948 0 0 1-.7-.275.948.948 0 0 1-.275-.7c0-.283.092-.517.275-.7l2.6-2.6c.2-.2.433-.3.7-.3.267 0 .5.1.7.3l2.6 2.6a.948.948 0 0 1 .275.7.948.948 0 0 1-.275.7.948.948 0 0 1-.7.275.948.948 0 0 1-.7-.275l-.9-.9V12c0 1.667.587 3.083 1.762 4.25C8.934 17.417 10.363 18 12.047 18c.266 0 .529-.017.787-.05.259-.033.513-.092.763-.175.283-.083.55-.075.8.025s.441.275.575.525c.133.267.146.53.037.788a.867.867 0 0 1-.587.512c-.383.133-.775.23-1.175.288-.4.058-.8.087-1.2.087Zm-.1-14c-.267 0-.53.017-.788.05a4.04 4.04 0 0 0-.762.175 1.231 1.231 0 0 1-.813-.025 1.097 1.097 0 0 1-.587-.525.849.849 0 0 1-.038-.763.862.862 0 0 1 .563-.512c.4-.133.8-.233 1.2-.3.4-.067.808-.1 1.225-.1 2.233 0 4.133.775 5.7 2.325 1.567 1.55 2.35 3.442 2.35 5.675v.175l.9-.9a.948.948 0 0 1 .7-.275c.283 0 .516.092.7.275a.948.948 0 0 1 .275.7.948.948 0 0 1-.275.7l-2.6 2.6c-.2.2-.433.3-.7.3a.96.96 0 0 1-.7-.3l-2.6-2.6a.948.948 0 0 1-.275-.7c0-.283.091-.517.275-.7a.948.948 0 0 1 .7-.275c.283 0 .517.092.7.275l.9.9V12c0-1.667-.588-3.083-1.763-4.25C15.06 6.583 13.63 6 11.947 6Z"></path></svg>