<svg fill="none" viewBox="0 0 16 16" data-astro-cid-wcny5lte="" astro-icon="requests"><path fill="currentColor" d="M3.598 13.598c-.33 0-.612-.117-.847-.352a1.156 1.156 0 0 1-.353-.848v-2.2c0-.17.058-.312.172-.427a.575.575 0 0 1 .425-.173c.169 0 .312.058.428.173a.576.576 0 0 1 .175.427v2.2h8.8v-8.8h-8.8v2.2c0 .17-.057.313-.171.428a.575.575 0 0 1-.425.172.587.587 0 0 1-.429-.172.576.576 0 0 1-.175-.428v-2.2c0-.33.118-.612.353-.847s.517-.353.847-.353h8.8c.33 0 .613.118.848.353s.352.517.352.847v8.8c0 .33-.117.613-.352.848a1.156 1.156 0 0 1-.848.352h-8.8Zm4.5-5h-5.1a.582.582 0 0 1-.427-.171.575.575 0 0 1-.173-.425c0-.17.058-.312.173-.429a.576.576 0 0 1 .427-.175h5.1L6.765 6.065a.596.596 0 0 1-.008-.85.61.61 0 0 1 .433-.183c.161 0 .303.06.425.183l2.367 2.367a.606.606 0 0 1 .167.42c0 .08-.014.155-.042.225a.554.554 0 0 1-.125.188l-2.367 2.367a.545.545 0 0 1-.417.175.636.636 0 0 1-.424-.192.596.596 0 0 1 .008-.85l1.316-1.317Z"></path></svg>